<?xml version="1.0" encoding="utf-8"?>
<!-- Generator: Adobe Illustrator 26.0.1, SVG Export Plug-In . SVG Version: 6.00 Build 0)  -->
<svg version="1.1" id="Layer_1" xmlns="http://www.w3.org/2000/svg" xmlns:xlink="http://www.w3.org/1999/xlink" x="0px" y="0px"
	 viewBox="0 0 500 500" style="enable-background:new 0 0 500 500;" xml:space="preserve">
<style type="text/css">
	.st0{fill:#CECECE;stroke:#1C1C1C;stroke-miterlimit:10;}
	.st1{fill:#333333;}
	.st2{fill:#8E8E8E;}
	.st3{fill:#A5A5A5;}
	.st4{fill:#6B6B6B;}
	.st5{fill:#444444;}
</style>
<g>
	
		<ellipse transform="matrix(0.1602 -0.9871 0.9871 0.1602 147.8477 299.6125)" class="st0" cx="250" cy="62.9" rx="35.9" ry="35.9"/>
	<g>
		<path class="st1" d="M248.3,182.4l-34.7-75.3c0,0-36.4,0.5-36.4,34s0,41.3,0,41.3S248.5,182.4,248.3,182.4z"/>
		<path class="st1" d="M251.7,182.4l34.7-75.3c0,0,36.4,0.5,36.4,34s0,41.3,0,41.3S251.5,182.4,251.7,182.4z"/>
	</g>
	<polygon class="st2" points="250,107.1 225,107.1 250,162.5 275,107.1 	"/>
	<circle class="st3" cx="400.2" cy="353.5" r="35.9"/>
	<g>
		<path class="st1" d="M398.5,473l-34.7-75.3c0,0-36.4,0.5-36.4,34s0,41.3,0,41.3S398.7,473,398.5,473z"/>
		<path class="st1" d="M401.9,473l34.7-75.3c0,0,36.4,0.5,36.4,34s0,41.3,0,41.3S401.6,473,401.9,473z"/>
	</g>
	<polygon class="st2" points="400.2,397.7 375.2,397.7 400.2,453.1 425.2,397.7 	"/>
	<circle class="st4" cx="99.8" cy="353.5" r="35.9"/>
	<g>
		<path class="st1" d="M98.1,473l-34.7-75.3c0,0-36.4,0.5-36.4,34s0,41.3,0,41.3S98.4,473,98.1,473z"/>
		<path class="st1" d="M101.5,473l34.7-75.3c0,0,36.4,0.5,36.4,34s0,41.3,0,41.3S101.3,473,101.5,473z"/>
	</g>
	<g>
		<path class="st2" d="M99.8,397.7H80.3c-2.6,0-4.3,2.7-3.2,5l19.5,43.2c1.3,2.8,5.2,2.8,6.5,0l19.5-43.2c1.1-2.3-0.7-5-3.2-5H99.8z
			"/>
	</g>
	<g>
		<path class="st5" d="M93.4,302.7c-0.1,0-0.2,0-0.3,0c-3-0.1-5.4-2.7-5.2-5.8l0.7-14.1c0.7-15.2,13.2-27.1,28.4-27.1h100.9
			c12.1,0,21.9-9.8,21.9-21.9v-10c0-3,2.5-5.5,5.5-5.5s5.5,2.5,5.5,5.5v10c0,18.1-14.7,32.9-32.9,32.9H117c-9.4,0-17,7.3-17.5,16.7
			l-0.7,14.1C98.8,300.4,96.3,302.7,93.4,302.7z"/>
	</g>
	<g>
		<path class="st5" d="M246.9,218.4c-0.1,0-0.2,0-0.3,0c-3,0.1-5.4,2.7-5.2,5.8l0.7,14.1c0.7,15.2,13.2,27.1,28.4,27.1h100.9
			c12.1,0,21.9,9.8,21.9,21.9v10c0,3,2.5,5.5,5.5,5.5s5.5-2.5,5.5-5.5v-10c0-18.1-14.7-32.9-32.9-32.9H270.5
			c-9.4,0-17-7.3-17.5-16.7l-0.7-14.1C252.3,220.7,249.8,218.4,246.9,218.4z"/>
	</g>
</g>
</svg>
