<?xml version="1.0" encoding="utf-8"?>
<!-- Generator: Adobe Illustrator 26.0.1, SVG Export Plug-In . SVG Version: 6.00 Build 0)  -->
<svg version="1.1" id="Layer_1" xmlns="http://www.w3.org/2000/svg" xmlns:xlink="http://www.w3.org/1999/xlink" x="0px" y="0px"
	 viewBox="0 0 250 250" style="enable-background:new 0 0 250 250;" xml:space="preserve">
<g>
	<path d="M213.2,179.5c-0.1,3.7-1.2,7.5-1.9,11.2c-0.1,0.6-0.6,1.4-1.2,1.7c-7.5,3.6-15.1,7.1-22.7,10.6c-0.1,0-0.3,0-0.5,0
		c-0.9-9.9-1.7-19.8-2.6-29.7c-0.1,0-0.2,0-0.3,0c-0.4,2.7-0.8,5.3-1.3,8.1c-10.6-25.8-29.2-41.1-57.5-41.2
		c-28.4,0-47.1,15.3-57.7,41.1c-0.4-2.7-0.8-5.4-1.3-8.1c-0.1,0-0.2,0-0.3,0c-0.9,9.9-1.7,19.8-2.6,30.1c-4.7-2.1-9.3-4-13.8-6
		c-3-1.4-6-3-8.9-4.7c-0.8-0.4-1.6-1.4-1.7-2.3c-0.8-4.9-1.9-9.8-2.1-14.7c-0.3-8.2-0.4-16.5,0.1-24.7c1.5-21.4,12.8-36,32.2-44.5
		c11.5-5.1,23.6-6.3,36-5.9c0.7,0,1.3,0.3,1.9,0.6c12.1,4.9,24.3,4.9,36.4-0.1c0.6-0.2,1.2-0.5,1.7-0.5c12-0.3,23.8,0.8,35,5.5
		c14.8,6.1,25.7,16.1,30.7,31.7c1.5,4.8,2.4,10,2.6,15.1C213.7,161.6,213.5,170.6,213.2,179.5z"/>
	<path d="M171.6,46.6c0.1,25.6-20.7,46.6-46.4,46.7C99.6,93.4,78.5,72.6,78.4,47C78.2,21.2,99.1,0.1,124.7,0
		C150.6-0.1,171.5,20.7,171.6,46.6z"/>
	<path d="M125.1,150.7c-27.4,0-49.6,22.1-49.7,49.4c-0.1,27.5,22.1,49.8,49.5,49.9c27.5,0.1,49.8-22.1,49.8-49.5
		C174.7,173,152.5,150.7,125.1,150.7z M147.8,229.3c0,3-0.7,3.8-3.8,3.8c-12.6,0-25.3,0-37.9,0c-3.2,0-3.9-0.7-3.9-3.9
		c0-9.6,0-19.2,0-28.8c0-5,0-5,5-5.6c0-3.1,0-6.1,0-9.1c0-10.2,8-18.3,17.9-18.2c9.9,0.1,17.8,8.2,17.7,18.4c0,2.9,0,5.9,0,8.8
		c0.3,0.1,0.5,0.2,0.7,0.2c3.9,0.2,4.3,0.6,4.3,4.5C147.8,209.4,147.8,219.4,147.8,229.3z"/>
	<path d="M136.2,194.9h-22.3c0-4.1-0.4-8.2,0.1-12.1c0.8-5.5,6.2-9.1,12.1-8.7c5.4,0.4,9.8,4.9,10.1,10.3
		C136.4,187.8,136.2,191.3,136.2,194.9z"/>
	<path d="M128.7,213.3c-1.1,1.4-1,2.8-0.8,4.3c0.2,2,0.4,4.1,0.7,6.3h-7.1c0.3-2.3,0.5-4.5,0.7-6.7c0.2-1.3,0.2-2.5-0.7-3.7
		c-1.3-1.6-0.8-4.1,0.8-5.4c1.6-1.3,3.8-1.4,5.4-0.1C129.2,209.2,129.9,211.7,128.7,213.3z"/>
</g>
</svg>
