<?xml version="1.0" encoding="utf-8"?>
<!-- Generator: Adobe Illustrator 26.0.1, SVG Export Plug-In . SVG Version: 6.00 Build 0)  -->
<svg version="1.1" id="Layer_1" xmlns="http://www.w3.org/2000/svg" xmlns:xlink="http://www.w3.org/1999/xlink" x="0px" y="0px"
	 viewBox="0 0 250 250" style="enable-background:new 0 0 250 250;" xml:space="preserve">
<g>
	<path d="M213.4,207.5c-20.5,22.4-46.1,35.6-76.3,38.5C97,249.9,62.9,236.7,35.6,207c-15.9-17.3-25.7-37.9-29.1-61.1
		C1.2,108.3,11.1,75,36.7,46.8c18.6-20.6,42-33,69.4-37.2c30.1-4.6,57.9,1.7,83.5,18c2.1,1.3,4.1,2.7,6.5,4.3
		c-1.2-5.8-2.3-11-3.4-16.2c-0.7-3.2-0.4-6.1,1.5-8.9c2-3,3.6-3.9,6.7-3.4c3.2,0.5,6.2,3,6.8,5.8c2.8,14.3,5.6,28.5,8.2,42.8
		c1.1,5.8-1.5,9.2-7.2,10.3c-13.4,2.6-26.8,5.3-40.3,7.7c-2,0.4-4.4,0.2-6.4-0.5c-3.6-1.3-4.9-3.9-4.5-7.6c0.4-3.4,2.8-6.2,6.1-6.9
		c8.6-1.7,17.2-3.3,25.9-5c0.4-0.1,0.8-0.2,1.8-0.4c-1.8-1.5-3.2-2.7-4.7-3.8c-22-16.5-46.8-23.1-74.2-20.2
		C66.7,30.5,29.8,66,23,111.6c-8.3,55.2,27.7,106.2,82.4,116.8c45.1,8.8,91.9-15.1,111.5-56.9c9.4-20,12-40.8,9.1-62.5
		c-0.1-0.8-0.3-1.7-0.5-2.5c-0.9-4.7,0.3-7.4,4.1-8.9c4.2-1.7,8.6-0.7,10.7,3.1c1.6,3,2.9,6.4,3.4,9.7
		C248.6,147.5,238.6,180,213.4,207.5z"/>
	<path d="M180.5,128.6c0-13.2-8.7-21.8-21.9-21.9c-2.3,0-4.7,0-7.2,0c0-6,0.1-11.7,0-17.3c-0.1-4.6-1-9.1-3.2-13.2
		c-5.3-9.7-14-12.9-24.4-12.9c-7.9,0.1-15,2.3-20.4,8.5c-4.7,5.4-6.1,11.9-6.2,18.8c-0.1,5.2,0,10.5,0,16c-3,0-5.6,0-8.2,0
		c-13.2,0-21.8,8.7-21.9,21.9c0,15.3,0,30.6,0,45.9c0,1.6,0,3.2,0.4,4.8c2,9.4,10.3,15.8,20.6,15.8c23.9,0,47.8,0,71.7,0
		c12.4,0,20.6-8.2,20.7-20.7C180.5,159.2,180.5,143.9,180.5,128.6z M112.4,88.7c0.2-6.9,3.9-10.3,10.7-10.3c1.4,0,2.9,0.1,4.3,0.4
		c4.6,0.9,7.4,3.5,7.7,8.2c0.4,6.5,0.1,13,0.1,19.7h-22.6c-0.1-0.4-0.2-0.8-0.2-1.2C112.3,99.9,112.2,94.3,112.4,88.7z M164.5,173.8
		c0,5.5-2.1,7.5-7.5,7.5c-22.5,0-45,0-67.5,0c-5.5,0-7.5-2-7.5-7.5c0-14.9,0-29.8,0-44.6c0-5.5,2-7.5,7.5-7.5c11.2,0,22.5,0,33.7,0
		c11.2,0,22.5,0,33.7,0c5.5,0,7.5,2,7.5,7.5C164.5,144,164.5,158.9,164.5,173.8z"/>
</g>
</svg>
