<?xml version="1.0" encoding="utf-8"?>
<!-- Generator: Adobe Illustrator 26.0.1, SVG Export Plug-In . SVG Version: 6.00 Build 0)  -->
<svg version="1.1" id="Capa_1" xmlns="http://www.w3.org/2000/svg" xmlns:xlink="http://www.w3.org/1999/xlink" x="0px"
	y="0px" viewBox="0 0 180 180" style="enable-background:new 0 0 180 180;" xml:space="preserve">
	<g>
		<path d="M176.4,31.1c1.6,0,2.9-0.4,3.6-1.9v-1.4c-0.7-1.5-2-2-3.6-2c-2.1,0-4.3,0-6.6,0c0-4.6,0.4-9-3.1-12.5
		c-3.5-3.5-8-3.1-12.5-3.1c0-2.3,0-4.5,0-6.6c0-1.6-0.4-2.9-2-3.6h-1.4c-1.5,0.7-2,2-1.9,3.6c0.1,2.2,0,4.3,0,6.5h-15.3
		c0-2.2-0.1-4.3,0-6.5c0.1-1.6-0.4-2.8-1.8-3.7h-1.8c-1.4,1-1.8,2.3-1.7,3.9c0.1,2,0,4.1,0,6.2h-15.2c0-2.1-0.1-4.2,0-6.2
		c0.1-1.6-0.3-3-1.7-3.9h-1.8c-1.4,0.8-1.9,2.1-1.8,3.7c0.1,2.1,0,4.2,0,6.4H92.6c0-2.2,0-4.4,0-6.5c0-1.6-0.4-2.9-2-3.6h-1.4
		c-1.5,0.7-2,2-2,3.6c0.1,2.1,0,4.3,0,6.5H72.1c0-2.2-0.1-4.3,0-6.4c0.1-1.6-0.4-2.8-1.8-3.7h-1.8c-1.4,1-1.8,2.3-1.7,3.9
		c0.1,2,0,4.1,0,6.2H51.6c0-2.1-0.1-4.2,0-6.2c0.1-1.6-0.4-3-1.7-3.9h-1.8c-1.4,0.8-1.9,2.1-1.8,3.7c0.1,2.1,0,4.2,0,6.4H31.1
		c0-2.2,0-4.3,0-6.5c0-1.6-0.4-2.9-1.9-3.6h-1.4c-1.5,0.7-2,2-2,3.6c0,2.1,0,4.3,0,6.6c-4.6,0-9-0.4-12.5,3.1
		c-3.5,3.5-3.1,8-3.1,12.5c-2.3,0-4.5,0-6.6,0c-1.6,0-2.9,0.4-3.6,2v1.4c0.7,1.5,2,2,3.6,1.9c2.2-0.1,4.3,0,6.5,0v15.3
		c-2.2,0-4.3,0.1-6.5,0c-1.6-0.1-2.8,0.4-3.7,1.8v1.8c1,1.4,2.3,1.8,3.9,1.7c2-0.1,4.1,0,6.2,0v15.2c-2,0-4.1,0.1-6.2,0
		c-1.6-0.1-3,0.3-3.9,1.7v1.8c0.8,1.4,2.1,1.9,3.7,1.8c2.1-0.1,4.2,0,6.4,0v15.3c-2.2,0-4.4,0-6.5,0c-1.6,0-2.9,0.4-3.6,2v1.4
		c0.7,1.5,2,2,3.6,2c2.1-0.1,4.3,0,6.5,0v15.3c-2.2,0-4.3,0.1-6.4,0c-1.6-0.1-2.8,0.4-3.7,1.8v1.8c1,1.4,2.3,1.8,3.9,1.7
		c2-0.1,4.1,0,6.2,0v15.2c-2.1,0-4.2,0.1-6.2,0c-1.6-0.1-3,0.4-3.9,1.7v1.8c0.8,1.4,2.1,1.9,3.7,1.8c2.1-0.1,4.2,0,6.4,0v15.3
		c-2.2,0-4.3,0-6.5,0c-1.6,0-2.9,0.4-3.6,1.9v1.4c0.7,1.5,2,2,3.6,2c2.1,0,4.3,0,6.6,0c0,4.6-0.4,9,3.1,12.5c3.5,3.5,8,3.1,12.5,3.1
		c0,2.3,0,4.5,0,6.6c0,1.6,0.4,2.9,2,3.6h1.4c1.5-0.7,2-2,1.9-3.6c-0.1-2.2,0-4.3,0-6.5h15.3c0,2.2,0.1,4.3,0,6.5
		c-0.1,1.6,0.4,2.8,1.8,3.7h1.8c1.4-1,1.8-2.3,1.7-3.9c-0.1-2,0-4.1,0-6.2h15.2c0,2,0.1,4.1,0,6.2c-0.1,1.6,0.3,3,1.7,3.9h1.8
		c1.4-0.8,1.9-2.1,1.8-3.7c-0.1-2.1,0-4.2,0-6.4h15.3c0,2.2,0,4.4,0,6.5c0,1.6,0.4,2.9,2,3.6h1.4c1.5-0.7,2-2,2-3.6
		c-0.1-2.1,0-4.3,0-6.5h15.3c0,2.2,0.1,4.3,0,6.4c-0.1,1.6,0.4,2.8,1.8,3.7h1.8c1.4-1,1.8-2.3,1.7-3.9c-0.1-2,0-4.1,0-6.2h15.2
		c0,2.1,0.1,4.2,0,6.2c-0.1,1.6,0.4,3,1.7,3.9h1.8c1.4-0.8,1.9-2.1,1.8-3.7c-0.1-2.1,0-4.2,0-6.4h15.3c0,2.2,0,4.3,0,6.5
		c0,1.6,0.4,2.9,1.9,3.6h1.4c1.5-0.7,2-2,2-3.6c0-2.1,0-4.3,0-6.6c4.6,0,9,0.4,12.5-3.1c3.5-3.5,3.1-8,3.1-12.5c2.3,0,4.5,0,6.6,0
		c1.6,0,2.9-0.4,3.6-2v-1.4c-0.7-1.5-2-2-3.6-1.9c-2.2,0.1-4.3,0-6.5,0v-15.3c2.2,0,4.3-0.1,6.5,0c1.6,0.1,2.8-0.4,3.7-1.8v-1.8
		c-1-1.4-2.3-1.8-3.9-1.7c-2,0.1-4.1,0-6.2,0v-15.2c2.1,0,4.2-0.1,6.2,0c1.6,0.1,3-0.3,3.9-1.7v-1.8c-0.8-1.4-2.1-1.9-3.7-1.8
		c-2.1,0.1-4.2,0-6.4,0V92.6c2.2,0,4.4,0,6.5,0c1.6,0,2.9-0.4,3.6-2v-1.4c-0.7-1.5-2-2-3.6-2c-2.1,0.1-4.3,0-6.5,0V72.1
		c2.2,0,4.3-0.1,6.4,0c1.6,0.1,2.8-0.4,3.7-1.8v-1.8c-1-1.4-2.3-1.8-3.9-1.7c-2,0.1-4.1,0-6.2,0V51.6c2.1,0,4.2-0.1,6.2,0
		c1.6,0.1,3-0.4,3.9-1.7v-1.8c-0.8-1.4-2.1-1.9-3.7-1.8c-2.1,0.1-4.2,0-6.4,0V31.1C172.1,31.1,174.2,31,176.4,31.1z M164.5,158
		c0,4.6-1.8,6.5-6.5,6.5H22c-4.6,0-6.5-1.9-6.5-6.5V22c0-4.6,1.8-6.5,6.5-6.5H158c4.6,0,6.5,1.8,6.5,6.5V158z" />
		<path d="M137.1,50.4c0,10.4,0,20.7,0,31.1c0,0.8,0,1.5-0.2,2.2c-0.4,1.3-1.4,1.9-2.7,1.7c-1.3-0.1-2-0.9-2.2-2.1
		c-0.1-0.6-0.1-1.3-0.1-1.9V50.7c0-2.5,0-2.5-2.4-2.5H50.6c-2.4,0-2.4,0-2.4,2.5v30.8c0,0.6,0,1.3-0.1,1.9c-0.2,1.2-1,2-2.2,2.1
		c-1.3,0.1-2.3-0.4-2.7-1.7C43,83.1,43,82.4,43,81.7c0-10.6,0-21.1,0-31.6c0-4.7,2.4-7.1,7.2-7.1c13.3,0,26.6,0,39.9,0h39.5
		C134.8,42.9,137.1,45.2,137.1,50.4z" />
		<path
			d="M137.1,112.7c0,2.4-0.9,4.4-2.6,6.1c-5.2,5.2-10.5,10.4-15.7,15.6c-1.9,1.8-4.1,2.6-6.7,2.6c-10.4,0-20.7,0-31.1,0H50.4
		c-5.2,0-7.5-2.3-7.5-7.5V98.6c0-0.5,0-0.9,0-1.4c0.2-1.8,1.2-2.8,2.8-2.7c1.5,0.1,2.4,1.1,2.4,2.9c0,3.1,0,6.2,0,9.3
		c0,7.6,0,15.2,0,22.8c0,2.2,0.1,2.3,2.3,2.3c20.5,0,40.9,0,61.3-0.1c1.2,0,2.7-0.6,3.5-1.4c5-4.8,9.9-9.8,14.9-14.7
		c1.1-1.1,1.5-2.2,1.5-3.8c-0.1-4.7,0-9.4,0-14.1c0-2.2,1-3.4,2.7-3.4c1.6,0,2.6,1.2,2.6,3.3C137.1,102.8,137.1,107.7,137.1,112.7z" />
		<path d="M119.8,85.4h-0.2c0,3.1,0.1,6.2,0,9.3c-0.2,3.1-2.1,5.1-5,6.1c-2.6,0.8-5.3,0.8-8,0c-3-0.9-4.9-2.9-5-6
		c-0.2-5.8-0.2-11.7-0.2-17.6c0-1.6,1.3-1.8,2.5-1.8c1.3,0,2.5,0.3,2.5,2c0,4.6,0,9.1,0,13.7c0,0.7,0,1.4,0,2.1
		c0.3,3.4,3.1,5.1,6.2,3.7c1.2-0.5,2-1.4,2-2.8c0.1-3.5,0.1-7,0.2-10.5c0-1.9,0-3.9,0-5.8c0-1.8,0.7-2.4,2.4-2.4
		c1.8,0,2.6,0.7,2.6,2.5C119.8,80.3,119.8,82.8,119.8,85.4z" />
		<path d="M91.4,75.5c-3.1-0.3-6.2-0.2-9.3-0.2c-1.4,0-2,0.8-2,2.3c0,7,0,14.1,0,21.1c0,1.8,0.7,2.4,2.5,2.4s2.5-0.6,2.5-2.4
		c0-2.3,0-4.7,0-7.3c2,0,3.9,0.1,5.7,0c4.8-0.3,7.5-3.1,7.7-7.7C98.6,78.9,96.2,76,91.4,75.5z M90.6,87.6c-1.8,0.3-3.6,0.2-5.5,0.4
		v-8.5c1.8,0,3.6-0.1,5.4,0c1.9,0.2,2.8,1.7,2.9,4C93.4,85.8,92.6,87.3,90.6,87.6z" />
		<path d="M76.7,94.7c-0.1,2.8-2.2,5.3-5.4,6.1c-1.7,0.4-3.6,0.6-5.4,0.4c-4.6-0.4-7-3.2-7.1-7.8c0-1.7,0-3.4,0-5.1h0
		c0-1.9-0.1-3.9,0-5.8c0.2-3.4,2-5.7,5.3-6.6c3.3-0.9,6.5-0.7,9.5,1c2,1.2,3.1,3,3.1,5.3c0,1.4-0.8,2-2.1,2.1
		c-1.2,0-2.5,0.1-2.9-1.6c-0.6-2.6-1.6-3.3-4-3.3c-2.5,0-3.8,1-3.9,3.5c-0.2,3.6-0.2,7.3,0,10.9c0.1,2.4,1.5,3.4,4,3.5
		c2.2,0.1,3.4-0.9,3.9-3.2c0.4-1.7,1.1-2.1,3.1-2C76.3,92.2,76.7,93.2,76.7,94.7z" />
		<path
			d="M26.3,59.1c0,1.5-1.3,2.8-2.8,2.8c-1.5,0-2.8-1.3-2.8-2.8c0-1.5,1.3-2.8,2.8-2.8C25.1,56.3,26.4,57.6,26.3,59.1z" />
		<path
			d="M26.3,71.3c0,1.5-1.3,2.8-2.8,2.8c-1.5,0-2.8-1.3-2.8-2.8c0-1.5,1.3-2.8,2.8-2.8C25,68.6,26.3,69.8,26.3,71.3z" />
		<path
			d="M26.3,144.8c0,1.5-1.3,2.8-2.8,2.8c-1.5,0-2.8-1.3-2.8-2.8c0-1.5,1.3-2.8,2.8-2.8C25.1,142,26.4,143.3,26.3,144.8z" />
		<path
			d="M74.5,144.9c0,1.5-1.4,2.8-2.8,2.8c-1.5,0-2.8-1.3-2.8-2.8c0-1.5,1.3-2.8,2.8-2.8C73.2,142.1,74.5,143.4,74.5,144.9z" />
		<path
			d="M26.3,132.5c0,1.5-1.2,2.8-2.7,2.9c-1.5,0-2.8-1.2-2.9-2.7c0-1.5,1.2-2.8,2.7-2.9C25,129.7,26.3,131,26.3,132.5z" />
		<path
			d="M122.7,144.8c0,1.5-1.2,2.8-2.7,2.9c-1.5,0-2.8-1.2-2.9-2.7c0-1.5,1.2-2.8,2.7-2.9C121.3,142,122.6,143.3,122.7,144.8z" />
		<path
			d="M134.7,144.8c0,1.5-1.2,2.8-2.7,2.8c-1.5,0-2.8-1.3-2.8-2.8c0-1.5,1.3-2.8,2.8-2.8C133.4,142,134.7,143.3,134.7,144.8z" />
		<path
			d="M38.3,59c0,1.6-1.2,2.8-2.8,2.8c-1.5,0-2.8-1.3-2.8-2.8c0-1.5,1.3-2.8,2.8-2.8C37.1,56.3,38.3,57.5,38.3,59z" />
		<path
			d="M38.3,132.6c0,1.6-1.3,2.8-2.8,2.8c-1.5,0-2.8-1.4-2.8-2.8c0-1.5,1.4-2.8,2.8-2.8C37.2,129.8,38.4,131,38.3,132.6z" />
		<path
			d="M38.3,71.4c0,1.5-1.2,2.8-2.8,2.8c-1.5,0-2.8-1.4-2.8-2.8c0-1.5,1.4-2.8,2.8-2.8C37.2,68.6,38.4,69.8,38.3,71.4z" />
		<path
			d="M86.5,144.8c0,1.5-1.2,2.8-2.8,2.8c-1.5,0-2.8-1.3-2.8-2.8c0-1.5,1.3-2.8,2.8-2.8C85.3,142,86.5,143.3,86.5,144.8z" />
		<path
			d="M38.3,144.9c0,1.6-1.3,2.8-2.8,2.7c-1.5,0-2.8-1.4-2.7-2.9c0-1.5,1.4-2.8,2.9-2.7C37.2,142.1,38.4,143.3,38.3,144.9z" />
		<path
			d="M122.7,34.6c0,1.5-1.3,2.8-2.8,2.8c-1.5,0-2.8-1.2-2.8-2.8c0-1.5,1.3-2.8,2.8-2.8C121.3,31.8,122.7,33.1,122.7,34.6z" />
		<path
			d="M134.7,34.6c0,1.5-1.2,2.8-2.8,2.8c-1.5,0-2.8-1.2-2.8-2.8c0-1.5,1.3-2.8,2.8-2.8C133.4,31.8,134.7,33,134.7,34.6z" />
		<path
			d="M38.3,95.9c0,1.5-1.3,2.8-2.8,2.8c-1.5,0-2.8-1.4-2.8-2.8c0-1.5,1.3-2.7,2.8-2.7C37.2,93.1,38.4,94.3,38.3,95.9z" />
		<path
			d="M38.3,46.9c0,1.6-1.2,2.8-2.8,2.8c-1.6,0-2.8-1.2-2.8-2.8c0-1.5,1.3-2.8,2.8-2.8C37.1,44,38.3,45.3,38.3,46.9z" />
		<path
			d="M134.7,22.4c0,1.5-1.2,2.8-2.8,2.8c-1.5,0-2.8-1.3-2.8-2.8c0-1.5,1.3-2.8,2.8-2.8C133.5,19.6,134.7,20.8,134.7,22.4z" />
		<path
			d="M62.5,144.9c0,1.5-1.4,2.8-2.9,2.7c-1.5,0-2.7-1.3-2.7-2.9c0-1.6,1.3-2.8,2.8-2.7C61.2,142.1,62.5,143.4,62.5,144.9z" />
		<path
			d="M134.7,157c0,1.5-1.3,2.8-2.8,2.8c-1.5,0-2.8-1.3-2.8-2.8c0-1.5,1.3-2.8,2.8-2.8C133.5,154.3,134.7,155.5,134.7,157z" />
		<path
			d="M110.6,34.6c0,1.5-1.3,2.8-2.8,2.7c-1.5,0-2.8-1.3-2.7-2.8c0-1.5,1.3-2.8,2.8-2.8C109.3,31.8,110.7,33.1,110.6,34.6z" />
		<path
			d="M26.4,83.5c0,1.5-1.3,2.8-2.8,2.8c-1.5,0-2.8-1.3-2.8-2.8c0-1.5,1.2-2.8,2.8-2.8C25.1,80.8,26.3,82,26.4,83.5z" />
		<path
			d="M74.5,22.5c0,1.5-1.4,2.8-2.9,2.7c-1.5,0-2.8-1.4-2.7-2.9c0.1-1.5,1.3-2.7,2.9-2.7C73.3,19.7,74.6,21,74.5,22.5z" />
		<path
			d="M26.4,95.8c0,1.5-1.3,2.8-2.8,2.8c-1.5,0-2.8-1.3-2.8-2.8c0-1.5,1.2-2.8,2.8-2.8C25.1,93.1,26.3,94.3,26.4,95.8z" />
		<path
			d="M38.4,108.1c0,1.5-1.3,2.7-2.8,2.7c-1.5,0-2.8-1.3-2.7-2.8c0-1.5,1.4-2.8,2.9-2.7C37.2,105.3,38.4,106.6,38.4,108.1z" />
		<path
			d="M38.3,120.3c0,1.6-1.2,2.8-2.7,2.8c-1.5,0-2.8-1.2-2.8-2.7c0-1.5,1.3-2.8,2.8-2.8C37.1,117.5,38.3,118.8,38.3,120.3z" />
		<path
			d="M158.8,120.4c0,1.5-1.3,2.8-2.8,2.7c-1.5,0-2.7-1.2-2.7-2.8c0-1.5,1.3-2.8,2.8-2.8C157.5,117.6,158.8,118.9,158.8,120.4z" />
		<path
			d="M146.7,132.6c0,1.5-1.3,2.8-2.8,2.7c-1.5,0-2.8-1.3-2.7-2.9c0-1.5,1.3-2.8,2.8-2.7C145.5,129.8,146.7,131,146.7,132.6z" />
		<path
			d="M26.3,22.4c0,1.5-1.4,2.8-2.9,2.7c-1.5,0-2.8-1.4-2.7-2.9c0-1.5,1.3-2.7,2.9-2.7C25.2,19.7,26.4,20.9,26.3,22.4z" />
		<path
			d="M38.4,22.4c0,1.5-1.3,2.8-2.8,2.8c-1.5,0-2.8-1.3-2.8-2.8c0-1.5,1.3-2.7,2.8-2.7C37.2,19.6,38.4,20.8,38.4,22.4z" />
		<path
			d="M62.5,22.4c0,1.5-1.3,2.8-2.8,2.8c-1.5,0-2.8-1.2-2.8-2.8c0-1.6,1.2-2.8,2.8-2.8C61.2,19.6,62.5,20.8,62.5,22.4z" />
		<path
			d="M86.5,22.3c0,1.5-1.2,2.8-2.8,2.8c-1.5,0-2.8-1.3-2.8-2.8c0-1.5,1.2-2.8,2.8-2.8C85.3,19.6,86.5,20.8,86.5,22.3z" />
		<path
			d="M110.6,22.3c0,1.5-1.3,2.8-2.8,2.8c-1.5,0-2.8-1.2-2.8-2.8c0-1.5,1.2-2.8,2.7-2.8C109.3,19.6,110.6,20.8,110.6,22.3z" />
		<path
			d="M146.7,144.8c0,1.5-1.2,2.8-2.8,2.8c-1.5,0-2.8-1.3-2.8-2.8s1.3-2.8,2.8-2.8C145.5,142,146.7,143.3,146.7,144.8z" />
		<path
			d="M122.7,22.3c0,1.5-1.3,2.8-2.8,2.9c-1.5,0-2.8-1.2-2.8-2.7c0-1.5,1.2-2.8,2.7-2.8C121.4,19.6,122.6,20.8,122.7,22.3z" />
		<path
			d="M38.4,34.6c0,1.5-1.3,2.7-2.8,2.7c-1.5,0-2.8-1.3-2.7-2.8c0.1-1.5,1.4-2.8,2.9-2.7C37.2,31.8,38.4,33.1,38.4,34.6z" />
		<path
			d="M26.3,157.1c0,1.5-1.4,2.8-2.9,2.7c-1.5,0-2.8-1.4-2.7-2.9c0-1.5,1.3-2.7,2.9-2.7C25.2,154.3,26.4,155.6,26.3,157.1z" />
		<path
			d="M38.4,157c0,1.5-1.2,2.8-2.7,2.9c-1.5,0-2.8-1.3-2.9-2.7c0-1.5,1.2-2.8,2.8-2.8C37.1,154.2,38.3,155.4,38.4,157z" />
		<path
			d="M38.4,83.5c0,1.5-1.2,2.8-2.8,2.8c-1.5,0-2.8-1.3-2.8-2.8c0-1.5,1.3-2.8,2.8-2.8C37.1,80.8,38.3,82,38.4,83.5z" />
		<path
			d="M74.5,157c0,1.5-1.3,2.8-2.8,2.8c-1.5,0-2.8-1.3-2.8-2.8c0-1.5,1.2-2.8,2.8-2.8C73.2,154.3,74.5,155.5,74.5,157z" />
		<path
			d="M86.5,157c0,1.5-1.2,2.8-2.7,2.9c-1.5,0-2.8-1.3-2.9-2.7c0-1.5,1.2-2.8,2.8-2.8C85.2,154.2,86.5,155.4,86.5,157z" />
		<path
			d="M110.6,157c0,1.5-1.3,2.8-2.8,2.8c-1.5,0-2.8-1.2-2.8-2.8c0-1.5,1.2-2.8,2.8-2.8C109.3,154.3,110.6,155.5,110.6,157z" />
		<path
			d="M122.7,156.9c0,1.5-1.2,2.8-2.7,2.9s-2.8-1.2-2.9-2.7c0-1.5,1.2-2.8,2.7-2.8C121.3,154.2,122.6,155.4,122.7,156.9z" />
		<path
			d="M62.5,34.5c0,1.5-1.2,2.8-2.7,2.8c-1.6,0-2.8-1.1-2.8-2.7c0-1.5,1.2-2.8,2.7-2.9C61.1,31.7,62.4,33,62.5,34.5z" />
		<path
			d="M158.8,34.5c0,1.5-1.2,2.8-2.8,2.8c-1.5,0-2.8-1.2-2.8-2.7c0-1.5,1.2-2.8,2.7-2.8C157.4,31.7,158.8,33.1,158.8,34.5z" />
		<path
			d="M146.7,46.9c0,1.5-1.2,2.8-2.8,2.7c-1.6,0-2.8-1.2-2.8-2.8c0-1.5,1.3-2.8,2.8-2.8C145.5,44.1,146.7,45.3,146.7,46.9z" />
		<path
			d="M158.8,46.8c0,1.5-1.2,2.8-2.7,2.8c-1.6,0-2.8-1.2-2.8-2.7c0-1.5,1.2-2.8,2.7-2.9C157.4,44,158.7,45.3,158.8,46.8z" />
		<path
			d="M146.7,59.1c0,1.5-1.3,2.8-2.8,2.7c-1.5,0-2.7-1.4-2.7-2.9c0.1-1.5,1.4-2.8,2.9-2.7C145.5,56.3,146.7,57.6,146.7,59.1z" />
		<path
			d="M146.7,71.3c0,1.5-1.2,2.8-2.7,2.8c-1.5,0-2.8-1.3-2.8-2.8c0-1.5,1.2-2.8,2.7-2.8C145.4,68.5,146.7,69.8,146.7,71.3z" />
		<path
			d="M62.5,157.1c0,1.5-1.4,2.8-2.9,2.7c-1.5,0-2.7-1.3-2.7-2.9c0-1.6,1.3-2.7,2.8-2.7C61.3,154.3,62.5,155.6,62.5,157.1z" />
		<path
			d="M146.7,34.6c0,1.5-1.2,2.8-2.8,2.8c-1.5,0-2.8-1.2-2.8-2.8c0-1.5,1.3-2.8,2.8-2.8C145.5,31.8,146.7,33,146.7,34.6z" />
		<path
			d="M158.8,95.8c0,1.5-1.3,2.8-2.8,2.8c-1.5,0-2.8-1.2-2.8-2.8c0-1.6,1.2-2.8,2.7-2.8C157.5,93.1,158.8,94.3,158.8,95.8z" />
		<path
			d="M98.5,34.6c0,1.5-1.3,2.7-2.8,2.7c-1.5,0-2.7-1.3-2.7-2.8c0-1.5,1.3-2.8,2.8-2.8C97.3,31.8,98.6,33.1,98.5,34.6z" />
		<path
			d="M158.8,144.8c0,1.5-1.3,2.8-2.8,2.8c-1.5,0-2.8-1.2-2.8-2.8c0-1.6,1.2-2.8,2.7-2.8C157.4,142,158.8,143.3,158.8,144.8z" />
		<path
			d="M158.8,83.5c0,1.5-1.3,2.8-2.8,2.8c-1.5,0-2.8-1.2-2.8-2.7c0-1.6,1.2-2.8,2.7-2.8C157.5,80.8,158.8,82,158.8,83.5z" />
		<path
			d="M146.7,108.1c0,1.5-1.2,2.8-2.8,2.7c-1.5,0-2.8-1.2-2.8-2.8c0-1.5,1.3-2.8,2.8-2.8C145.5,105.2,146.7,106.5,146.7,108.1z" />
		<path
			d="M158.8,108.1c0,1.5-1.3,2.7-2.8,2.7c-1.5,0-2.7-1.2-2.7-2.8c0-1.5,1.3-2.8,2.8-2.8C157.5,105.3,158.8,106.6,158.8,108.1z" />
		<path
			d="M86.5,34.6c0,1.5-1.2,2.8-2.8,2.7c-1.5,0-2.8-1.3-2.8-2.8c0-1.5,1.4-2.8,2.8-2.8C85.3,31.8,86.5,33,86.5,34.6z" />
		<path
			d="M158.8,71.5c-0.1,1.5-1.5,2.7-2.9,2.7c-1.5-0.1-2.7-1.4-2.6-2.9c0.1-1.5,1.4-2.7,2.9-2.6C157.6,68.7,158.9,70,158.8,71.5z" />
		<path
			d="M146.7,120.3c0,1.6-1.2,2.8-2.7,2.8c-1.5,0-2.8-1.2-2.8-2.7c0-1.5,1.2-2.8,2.7-2.9C145.4,117.5,146.7,118.7,146.7,120.3z" />
		<path
			d="M158.8,59.1c0,1.5-1.4,2.8-2.8,2.8c-1.5,0-2.7-1.3-2.7-2.8c0-1.5,1.3-2.8,2.8-2.8C157.5,56.3,158.8,57.6,158.8,59.1z" />
		<path
			d="M50.4,34.6c0,1.5-1.2,2.8-2.8,2.8c-1.5,0-2.8-1.3-2.8-2.8c0-1.5,1.3-2.8,2.8-2.8C49.2,31.8,50.4,33.1,50.4,34.6z" />
		<path
			d="M158.8,157c0,1.5-1.4,2.8-2.8,2.8c-1.5,0-2.7-1.3-2.7-2.8c0-1.5,1.2-2.8,2.8-2.7C157.5,154.3,158.8,155.5,158.8,157z" />
		<path d="M158.8,132.7c-0.1,1.5-1.5,2.7-2.9,2.7c-1.5-0.1-2.7-1.4-2.6-2.9c0.1-1.5,1.4-2.7,2.9-2.7
		C157.6,129.8,158.9,131.2,158.8,132.7z" />
		<path
			d="M158.8,22.3c0,1.5-1.3,2.8-2.8,2.8c-1.5,0-2.8-1.2-2.8-2.8c0-1.6,1.2-2.8,2.7-2.8C157.5,19.6,158.8,20.8,158.8,22.3z" />
		<path
			d="M98.5,22.3c0,1.5-1.2,2.8-2.7,2.8c-1.5,0-2.8-1.2-2.8-2.8c0-1.5,1.2-2.8,2.7-2.8C97.3,19.6,98.5,20.8,98.5,22.3z" />
		<path
			d="M50.4,144.8c0,1.5-1.2,2.8-2.7,2.9c-1.5,0-2.8-1.2-2.8-2.7c0-1.5,1.2-2.8,2.7-2.9C49.1,142,50.4,143.2,50.4,144.8z" />
		<path
			d="M146.7,83.6c0,1.6-1.3,2.8-2.8,2.8c-1.5,0-2.8-1.3-2.7-2.8c0-1.5,1.3-2.7,2.8-2.7C145.5,80.8,146.7,82,146.7,83.6z" />
		<path
			d="M146.7,96c-0.1,1.6-1.3,2.7-2.9,2.7c-1.5-0.1-2.7-1.4-2.6-2.9c0.1-1.5,1.3-2.7,2.9-2.6C145.6,93.2,146.8,94.4,146.7,96z" />
		<path
			d="M98.5,144.8c0,1.5-1.2,2.8-2.8,2.8c-1.5,0-2.8-1.3-2.8-2.8c0-1.5,1.2-2.8,2.8-2.8C97.3,142,98.5,143.3,98.5,144.8z" />
		<path
			d="M110.6,144.8c0,1.5-1.3,2.8-2.8,2.9c-1.5,0-2.8-1.2-2.8-2.8c0-1.6,1.2-2.8,2.7-2.9C109.3,142,110.6,143.3,110.6,144.8z" />
		<path
			d="M26.4,108.1c0,1.5-1.3,2.7-2.9,2.7c-1.5,0-2.8-1.3-2.7-2.8c0-1.5,1.4-2.8,2.9-2.7C25.1,105.3,26.4,106.6,26.4,108.1z" />
		<path
			d="M74.5,34.5c0,1.5-1.2,2.8-2.8,2.8c-1.5,0-2.8-1.2-2.8-2.7c0-1.5,1.3-2.8,2.8-2.8C73.1,31.7,74.5,33.1,74.5,34.5z" />
		<path
			d="M26.3,120.4c0,1.5-1.3,2.8-2.8,2.7c-1.5,0-2.8-1.2-2.8-2.8c0-1.5,1.3-2.8,2.8-2.8C25,117.5,26.4,118.9,26.3,120.4z" />
		<path d="M98.5,157c0,1.5-1.2,2.8-2.8,2.8c-1.5,0-2.8-1.3-2.8-2.8c0-1.5,1.3-2.8,2.8-2.7S98.6,155.5,98.5,157z" />
		<path
			d="M146.7,157c0,1.6-1.2,2.8-2.7,2.8c-1.5,0-2.8-1.2-2.8-2.8c0-1.5,1.2-2.8,2.7-2.8C145.5,154.2,146.7,155.4,146.7,157z" />
		<path
			d="M26.4,34.6c0,1.5-1.3,2.7-2.9,2.7c-1.5,0-2.8-1.3-2.7-2.8c0-1.5,1.4-2.8,2.8-2.7C25.1,31.8,26.4,33.2,26.4,34.6z" />
		<path
			d="M26.3,46.8c0,1.5-1.2,2.8-2.8,2.8c-1.5,0-2.8-1.2-2.8-2.7c0-1.5,1.3-2.8,2.8-2.8C25,44,26.3,45.4,26.3,46.8z" />
		<path
			d="M146.7,22.3c0,1.5-1.2,2.8-2.7,2.8c-1.5,0-2.8-1.2-2.8-2.8c0-1.5,1.2-2.8,2.8-2.8C145.5,19.6,146.7,20.8,146.7,22.3z" />
		<path
			d="M50.4,22.3c0,1.5-1.2,2.8-2.7,2.9c-1.5,0-2.8-1.2-2.8-2.7c0-1.5,1.2-2.8,2.7-2.8C49.1,19.6,50.4,20.8,50.4,22.3z" />
		<path
			d="M50.4,157c0,1.5-1.2,2.8-2.8,2.8c-1.5,0-2.8-1.3-2.8-2.8c0-1.5,1.2-2.8,2.8-2.8C49.2,154.2,50.4,155.5,50.4,157z" />
	</g>
</svg>