<?xml version="1.0" encoding="utf-8"?>
<!-- Generator: Adobe Illustrator 26.0.1, SVG Export Plug-In . SVG Version: 6.00 Build 0)  -->
<svg version="1.1"
	 id="Layer_1" xmlns:cc="http://creativecommons.org/ns#" xmlns:dc="http://purl.org/dc/elements/1.1/" xmlns:rdf="http://www.w3.org/1999/02/22-rdf-syntax-ns#" xmlns:svg="http://www.w3.org/2000/svg"
	 xmlns="http://www.w3.org/2000/svg" xmlns:xlink="http://www.w3.org/1999/xlink" x="0px" y="0px" viewBox="0 0 128 128"
	 style="enable-background:new 0 0 128 128;" xml:space="preserve">
<style type="text/css">
	.st0{fill:#F9F9F9;}
	.st1{fill:#AAAAAA;}
	.st2{fill:#FFFFFF;}
</style>
<desc>This is shape (source) for Clarity vector icon theme for gtk</desc>
<g>
	<path class="st0" d="M57.9,65.5c-3.9,2.2-6.3,6.4-6.3,10.9v4.9c1.9,1.4,4.1,2.5,6.4,3.1c0-10.7,1.6-15.6,2.5-17.5
		C59.6,66.5,58.7,66,57.9,65.5z"/>
	<path class="st1" d="M76.5,81.2v-4.9c0-4.5-2.4-8.6-6.3-10.9c-1.7,1.2-3.9,2-6.1,2c-1.2,0-2.4-0.2-3.5-0.6c-0.9,2-2.5,6.8-2.5,17.5
		c1.9,0.6,4,0.9,6.1,0.9C68.7,85.3,73,83.8,76.5,81.2z"/>
	<path class="st1" d="M64,63.9c3.9,0,7.1-3.2,7.1-7.1c0-3.9-3.1-7-6.9-7.1c2.1,1.1,3.4,3.2,3.4,5.7c0,3.6-2.9,6.5-6.5,6.5
		c-1,0-1.9-0.2-2.8-0.6C59.8,62.8,61.8,63.9,64,63.9z"/>
	<path class="st0" d="M67.7,55.3c0-2.5-1.4-4.6-3.4-5.7c-0.1,0-0.1,0-0.2,0c-3.9,0-7.1,3.2-7.1,7.1c0,1.7,0.6,3.2,1.6,4.4
		c0.8,0.4,1.8,0.6,2.8,0.6C64.8,61.8,67.7,58.9,67.7,55.3z M59.6,55.3c0-0.9,0.7-1.6,1.6-1.6s1.6,0.7,1.6,1.6s-0.7,1.6-1.6,1.6
		C60.3,56.9,59.6,56.2,59.6,55.3z"/>
	<path class="st0" d="M21.1,103.9c-2.6,1.6-4.1,4.3-4.1,7.4l0,3.3c1.2,0.8,2.5,1.5,3.9,2c0.2-6.7,1.1-10.2,1.8-11.8
		C22.1,104.5,21.6,104.3,21.1,103.9z"/>
	<path class="st1" d="M25.6,117.4c3.2,0,6.2-1,8.7-2.7l0-3.3c0-3-1.6-5.8-4.1-7.4c-1.3,0.8-2.9,1.3-4.5,1.3c-1,0-2.1-0.2-3-0.6
		c-0.7,1.7-1.6,5.1-1.8,11.8C22.3,117.1,24,117.4,25.6,117.4z"/>
	<path class="st1" d="M25.6,101.7c2.6,0,4.7-2.1,4.7-4.7c0-1.7-0.9-3.2-2.3-4c0.3,0.7,0.5,1.4,0.5,2.2c0,2.9-2.3,5.1-5.1,5.1
		c-0.5,0-0.9-0.1-1.4-0.2C22.9,101.1,24.2,101.7,25.6,101.7z"/>
	<path class="st0" d="M28.6,95.1c0-0.8-0.2-1.5-0.5-2.2c-0.7-0.4-1.5-0.7-2.4-0.7c-2.6,0-4.7,2.1-4.7,4.7c0,1.2,0.4,2.3,1.2,3.1
		c0.4,0.1,0.9,0.2,1.4,0.2C26.3,100.3,28.6,98,28.6,95.1z M24.4,94.7c0.5,0,0.9,0.4,0.9,0.9c0,0.5-0.4,0.9-0.9,0.9
		c-0.5,0-0.9-0.4-0.9-0.9C23.4,95.1,23.8,94.7,24.4,94.7z"/>
	<path class="st0" d="M97.9,103.9c-2.6,1.6-4.1,4.3-4.1,7.4l0,3.3c1.2,0.8,2.6,1.5,4,2c0.1-6.7,1.1-10.1,1.8-11.9
		C98.9,104.6,98.4,104.3,97.9,103.9z"/>
	<path class="st1" d="M111,114.6l0-3.3c0-3-1.6-5.8-4.1-7.4c-1.3,0.8-2.9,1.3-4.5,1.3c-1,0-2-0.2-2.9-0.5c-0.7,1.7-1.6,5.2-1.8,11.9
		c1.5,0.5,3,0.7,4.6,0.7C105.6,117.4,108.6,116.3,111,114.6z"/>
	<path class="st1" d="M100.3,100.3c-0.5,0-1-0.1-1.5-0.2c0.9,1,2.2,1.7,3.6,1.7c2.6,0,4.7-2.1,4.7-4.7c0-1.6-0.8-3.1-2.1-3.9
		c0.3,0.6,0.4,1.3,0.4,2.1C105.4,98,103.1,100.3,100.3,100.3z"/>
	<path class="st0" d="M97.6,97c0,1.2,0.4,2.2,1.1,3c0.5,0.1,1,0.2,1.5,0.2c2.9,0,5.1-2.3,5.1-5.1c0-0.7-0.1-1.4-0.4-2.1
		c-0.7-0.5-1.7-0.8-2.6-0.8C99.8,92.3,97.6,94.4,97.6,97z M100.7,94.7c0.5,0,0.9,0.4,0.9,0.9c0,0.5-0.4,0.9-0.9,0.9
		c-0.5,0-0.9-0.4-0.9-0.9C99.7,95.2,100.1,94.7,100.7,94.7z"/>
	<path class="st0" d="M97.9,27.3c-2.6,1.6-4.1,4.3-4.1,7.4l0,3.3c1.2,0.8,2.6,1.5,4,2c0.1-6.6,1.1-10.1,1.8-11.9
		C98.9,27.9,98.4,27.6,97.9,27.3z"/>
	<path class="st1" d="M111,38l0-3.3c0-3-1.6-5.8-4.1-7.4c-1.3,0.8-2.9,1.3-4.5,1.3c-1,0-2-0.2-2.9-0.5c-0.7,1.7-1.6,5.2-1.8,11.9
		c1.5,0.5,3,0.7,4.6,0.7C105.6,40.7,108.6,39.7,111,38z"/>
	<path class="st1" d="M100.3,23.5c-0.6,0-1.1-0.1-1.6-0.3c0.9,1.1,2.2,1.8,3.7,1.8c2.6,0,4.7-2.1,4.7-4.7c0-1.6-0.8-3-2-3.9
		c0.2,0.6,0.4,1.2,0.4,1.9C105.4,21.2,103.1,23.5,100.3,23.5z"/>
	<path class="st0" d="M97.6,20.3c0,1.1,0.4,2.1,1,2.9c0.5,0.2,1.1,0.3,1.6,0.3c2.9,0,5.1-2.3,5.1-5.1c0-0.7-0.1-1.3-0.4-1.9
		c-0.8-0.5-1.7-0.8-2.7-0.8C99.8,15.6,97.6,17.7,97.6,20.3z M101.2,17.7c0.5,0,0.9,0.4,0.9,0.9c0,0.5-0.4,0.9-0.9,0.9
		c-0.5,0-0.9-0.4-0.9-0.9S100.7,17.7,101.2,17.7z"/>
	<path class="st0" d="M21.1,27.3c-2.6,1.6-4.1,4.3-4.1,7.4l0,3.3c1.2,0.8,2.5,1.5,3.9,2c0.1-6.6,1.1-10.1,1.8-11.9
		C22.1,27.8,21.6,27.6,21.1,27.3z"/>
	<path class="st1" d="M25.6,40.7c3.2,0,6.2-1,8.7-2.7l0-3.3c0-3-1.6-5.8-4.1-7.4c-1.3,0.8-2.9,1.3-4.5,1.3c-1.1,0-2.1-0.2-3-0.6
		c-0.7,1.7-1.6,5.2-1.8,11.9C22.3,40.4,24,40.7,25.6,40.7z"/>
	<path class="st1" d="M25.6,25.1c2.6,0,4.7-2.1,4.7-4.7c0-1.7-0.9-3.2-2.2-4c0.3,0.6,0.4,1.3,0.4,2c0,2.9-2.3,5.1-5.1,5.1
		c-0.5,0-1-0.1-1.5-0.2C22.8,24.4,24.1,25.1,25.6,25.1z"/>
	<path class="st0" d="M28.6,18.3c0-0.7-0.1-1.4-0.4-2c-0.7-0.5-1.6-0.7-2.5-0.7c-2.6,0-4.7,2.1-4.7,4.7c0,1.1,0.4,2.1,1,2.9
		c0.5,0.1,1,0.2,1.5,0.2C26.3,23.5,28.6,21.2,28.6,18.3z M24.4,18c0.5,0,0.9,0.4,0.9,0.9c0,0.5-0.4,0.9-0.9,0.9
		c-0.5,0-0.9-0.4-0.9-0.9S23.8,18,24.4,18z"/>
	<path d="M102.4,83.5c-4.5,0-8.7,1.6-11.9,4.3l-7.6-7.6c3.8-4.4,6.1-10.1,6.1-16.3s-2.3-12-6.1-16.3l7.6-7.6
		c3.2,2.7,7.4,4.3,11.9,4.3c10.3,0,18.7-8.4,18.7-18.7s-8.4-18.7-18.7-18.7c-10.3,0-18.7,8.4-18.7,18.7c0,4.5,1.6,8.7,4.3,11.9
		L80.4,45c-4.4-3.8-10.1-6.1-16.3-6.1s-12,2.3-16.3,6.1l-7.6-7.6c2.7-3.2,4.3-7.4,4.3-11.9c0-10.3-8.4-18.7-18.7-18.7
		c-10.3,0-18.7,8.4-18.7,18.7c0,10.3,8.4,18.7,18.7,18.7c4.5,0,8.7-1.6,12-4.3l7.6,7.6c-3.8,4.4-6.1,10.1-6.1,16.3
		c0,6.2,2.3,12,6.1,16.3l-7.6,7.6c-3.2-2.7-7.4-4.3-12-4.3c-10.3,0-18.7,8.4-18.7,18.7s8.4,18.7,18.7,18.7s18.7-8.4,18.7-18.7
		c0-4.5-1.6-8.6-4.3-11.9l7.6-7.6c4.4,3.8,10.1,6.1,16.3,6.1c6.2,0,12-2.3,16.3-6.1l7.6,7.6c-2.7,3.2-4.3,7.4-4.3,11.9
		c0,10.3,8.4,18.7,18.7,18.7s18.7-8.4,18.7-18.7C121.1,91.9,112.7,83.5,102.4,83.5z M102.4,10.4L102.4,10.4
		c8.4,0,15.1,6.8,15.1,15.1c0,3.4-1.1,6.4-2.9,9c0-3.9-2-7.6-5.1-9.8c0.8-1.3,1.3-2.8,1.3-4.4c0-4.6-3.7-8.3-8.3-8.3l0,0
		c-4.6,0-8.3,3.7-8.3,8.3c0,1.6,0.5,3.1,1.3,4.4c-3.2,2.2-5.1,5.9-5.1,9.8c-1.9-2.5-2.9-5.6-2.9-9C87.2,17.2,94,10.4,102.4,10.4z
		 M97.7,40c-1.4-0.5-2.8-1.1-4-2l0-3.3c0-3,1.6-5.8,4.1-7.4c0.5,0.3,1,0.6,1.6,0.8c0.9,0.3,1.9,0.5,2.9,0.5c1.7,0,3.2-0.5,4.5-1.3
		c2.6,1.6,4.1,4.3,4.1,7.4l0,3.3c-2.5,1.7-5.5,2.7-8.7,2.7C100.8,40.7,99.2,40.4,97.7,40z M102.4,15.6c1,0,1.9,0.3,2.7,0.8
		c1.2,0.8,2,2.3,2,3.9c0,2.6-2.1,4.7-4.7,4.7c-1.5,0-2.9-0.7-3.7-1.8c-0.6-0.8-1-1.8-1-2.9C97.6,17.7,99.8,15.6,102.4,15.6z M17,38
		l0-3.3c0-3,1.6-5.8,4.1-7.4c0.5,0.3,1,0.6,1.5,0.8c0.9,0.4,2,0.6,3,0.6c1.7,0,3.2-0.5,4.5-1.3c2.6,1.6,4.1,4.3,4.1,7.4l0,3.3
		c-2.5,1.7-5.5,2.7-8.7,2.7c-1.7,0-3.3-0.3-4.8-0.8C19.4,39.5,18.1,38.8,17,38z M20.9,20.3c0-2.6,2.1-4.7,4.7-4.7
		c0.9,0,1.8,0.3,2.5,0.7c1.3,0.8,2.2,2.3,2.2,4c0,2.6-2.1,4.7-4.7,4.7c-1.5,0-2.8-0.7-3.7-1.8C21.3,22.5,20.9,21.4,20.9,20.3z
		 M32.7,24.7c0.8-1.3,1.3-2.8,1.3-4.4c0-4.6-3.7-8.3-8.3-8.3l0,0c-4.6,0-8.3,3.7-8.3,8.3c0,1.6,0.5,3.1,1.3,4.4
		c-3.2,2.2-5.1,5.9-5.1,9.8c-1.9-2.5-3-5.6-3-9c0-8.4,6.8-15.1,15.1-15.1l0,0c8.4,0,15.1,6.8,15.1,15.1c0,3.4-1.1,6.4-2.9,9
		C37.8,30.6,35.8,26.9,32.7,24.7z M37.8,111.2c0-3.9-2-7.6-5.1-9.8c0.8-1.3,1.3-2.8,1.3-4.4c0-4.6-3.7-8.3-8.3-8.3l0,0
		c-4.6,0-8.3,3.7-8.3,8.3c0,1.6,0.5,3.1,1.3,4.4c-3.2,2.2-5.1,5.9-5.1,9.8c-1.9-2.5-2.9-5.6-2.9-9c0-8.4,6.8-15.1,15.1-15.1l0,0
		c8.4,0,15.1,6.8,15.1,15.1C40.8,105.5,39.7,108.7,37.8,111.2z M17,114.6l0-3.3c0-3,1.6-5.8,4.1-7.4c0.5,0.3,1,0.6,1.5,0.8
		c0.9,0.4,1.9,0.6,3,0.6c1.7,0,3.2-0.5,4.5-1.3c2.6,1.6,4.1,4.3,4.1,7.4l0,3.3c-2.5,1.7-5.5,2.7-8.7,2.7c-1.7,0-3.3-0.3-4.8-0.8
		C19.5,116.1,18.1,115.4,17,114.6z M20.9,97c0-2.6,2.1-4.7,4.7-4.7c0.9,0,1.7,0.3,2.4,0.7c1.4,0.8,2.3,2.3,2.3,4
		c0,2.6-2.1,4.7-4.7,4.7c-1.4,0-2.7-0.6-3.6-1.6C21.3,99.3,20.9,98.2,20.9,97z M58,84.4c-2.3-0.7-4.5-1.8-6.4-3.1v-4.9
		c0-4.5,2.4-8.6,6.3-10.9c0.8,0.6,1.7,1,2.6,1.4c1.1,0.4,2.3,0.6,3.5,0.6c2.3,0,4.4-0.7,6.1-2c3.9,2.2,6.3,6.4,6.3,10.9v4.9
		c-3.5,2.5-7.8,4-12.5,4C61.9,85.3,59.9,84.9,58,84.4z M56.9,56.7c0-3.9,3.2-7.1,7.1-7.1c0.1,0,0.1,0,0.2,0c3.8,0.1,6.9,3.3,6.9,7.1
		c0,3.9-3.2,7.1-7.1,7.1c-2.2,0-4.3-1.1-5.6-2.7C57.5,60,56.9,58.4,56.9,56.7z M72.8,62.9c1.2-1.7,2-3.9,2-6.2
		c0-5.9-4.8-10.7-10.7-10.7c0,0,0,0,0,0c-5.9,0-10.7,4.8-10.7,10.7c0,2.3,0.7,4.4,2,6.2c-4.5,2.9-7.3,8-7.3,13.5V78
		c-3.3-3.8-5.3-8.7-5.3-14.1c0-11.8,9.6-21.4,21.4-21.4c0,0,0,0,0,0c11.8,0,21.4,9.6,21.4,21.4c0,5.4-2,10.4-5.3,14.1v-1.6
		C80.1,70.9,77.3,65.8,72.8,62.9z M114.6,111.2c0-3.9-2-7.6-5.1-9.8c0.8-1.3,1.3-2.8,1.3-4.4c0-4.6-3.7-8.3-8.3-8.3l0,0
		c-4.6,0-8.3,3.7-8.3,8.3c0,1.6,0.5,3.1,1.3,4.4c-3.2,2.2-5.1,5.9-5.1,9.8c-1.9-2.5-2.9-5.6-2.9-9c0-8.4,6.8-15.1,15.1-15.1l0,0
		c8.4,0,15.1,6.8,15.1,15.1C117.5,105.5,116.4,108.7,114.6,111.2z M97.7,116.6c-1.4-0.5-2.8-1.1-4-2l0-3.3c0-3,1.6-5.8,4.1-7.4
		c0.5,0.3,1.1,0.6,1.6,0.8c0.9,0.3,1.9,0.5,2.9,0.5c1.7,0,3.2-0.5,4.5-1.3c2.6,1.6,4.1,4.3,4.1,7.4l0,3.3c-2.5,1.7-5.5,2.7-8.7,2.7
		C100.8,117.4,99.2,117.1,97.7,116.6z M102.4,92.3c1,0,1.9,0.3,2.6,0.8c1.3,0.8,2.1,2.3,2.1,3.9c0,2.6-2.1,4.7-4.7,4.7
		c-1.4,0-2.8-0.7-3.6-1.7c-0.7-0.8-1.1-1.9-1.1-3C97.6,94.4,99.8,92.3,102.4,92.3z"/>
	<circle class="st2" cx="61.2" cy="55.3" r="1.6"/>
	<circle class="st2" cx="24.4" cy="18.9" r="0.9"/>
	<circle class="st2" cx="24.4" cy="95.6" r="0.9"/>
	<circle class="st2" cx="100.7" cy="95.7" r="0.9"/>
	<circle class="st2" cx="101.2" cy="18.7" r="0.9"/>
</g>
</svg>
