<?xml version="1.0" encoding="utf-8"?>
<!-- Generator: Adobe Illustrator 26.0.1, SVG Export Plug-In . SVG Version: 6.00 Build 0)  -->
<svg version="1.1" id="Layer_1" xmlns="http://www.w3.org/2000/svg" xmlns:xlink="http://www.w3.org/1999/xlink" x="0px" y="0px"
	 viewBox="0 0 512 512" style="enable-background:new 0 0 512 512;" xml:space="preserve">
<g>
	<path d="M477,344.2c-7.7,0-15.5,0-23.9,0c24.7-59,24.5-117.4,0-176.3h18.1v-16H456v-15.8c7.7,0,15,0,22.3,0
		c15.2-0.1,25.3-10.2,25.3-25.5c0.1-25.7,0.1-51.4,0-77c0-15.5-10.1-25.5-25.7-25.6c-41.4,0-82.8,0-124.2,0c-15.9,0-25.7,10-25.7,26
		c0,5.9,0,11.8,0,17.9c-1.1-0.1-1.6-0.1-2.1-0.3c-42.2-14.2-84.7-15.4-127.6-3.5c-3.1,0.9-4.3-0.3-6.1-2.3
		C164.5,14.5,130,1.6,89.2,11c-40.8,9.4-67.4,35.7-77.3,76.4C1.7,128.8,14.4,164,46.4,192.1c2.4,2.1,2.7,3.7,2.1,6.7
		c-2.5,11.9-5.5,23.7-6.8,35.8c-4,36.9,1.8,72.4,16,106.5c0.4,0.9,0.5,1.8,0.8,3.1c-8.3,0-16.3,0-24.3,0c-15.9,0.1-25.7,10-25.7,26
		c0,25.3,0,50.7,0,76c0,16.2,9.9,26,26.2,26c7.1,0,14.2,0,21.3,0v16.1H40.7v15.5H152v-15.7h-15.4v-15.9c6.3,0,12.3-0.3,18.3,0.1
		c11.4,0.6,20.6-2.7,26.7-13.3c49.7,17.7,99.4,17.6,148.8,0.1c7.6,10.5,12.7,13.1,25.1,13.1c6.7,0,13.5,0,20.1,0v16.1h-15.3V504h111
		v-15.8H456v-15.9c7.3,0,14.2,0,21.2,0c16.6,0,26.4-9.8,26.4-26.3c0-25,0-50,0-75C503.6,353.9,493.9,344.2,477,344.2z M487.6,111.2
		c-0.2,5.9-3.1,8.8-9.1,8.9c-8.5,0.1-16.9,0-25.4,0h-95.2c-13,0-14.9-2.2-13.7-15.9h143.4C487.6,106.7,487.7,109,487.6,111.2z
		 M439.5,136.5v15.3h-47.5v-15.3H439.5z M343.9,33.9c0-6.9,2.8-9.8,9.6-9.8c41.5,0,83.1,0,124.6,0c5.7,0,9.3,2.6,9.3,7.5
		c0.2,18.6,0.1,37.3,0.1,56.3H343.9V70.4C343.9,58.2,343.8,46.1,343.9,33.9z M188.7,72.2c0.9,0,2.3,1.2,2.8,2.2
		c4.4,9.2,7.3,18.9,8,29.4h-39.1c-1.1-10.5-2.1-20.9-3.2-31.7C167.8,72.1,178.3,72.1,188.7,72.2z M83.9,151.8
		c-1.2-10.2-2.4-20.5-3.7-31.3h64.3c-1.2,10.7-2.4,20.9-3.6,31.3H83.9z M136.2,168.3c-3.3,9.9-6.9,19.3-14.1,26.7
		c-6.6,6.8-12.8,6.8-19.4,0.1c-7.3-7.4-10.9-16.9-14.3-26.9H136.2z M152.5,170.3c0.4-1,2.1-2.1,3.3-2.1c7.6-0.2,15.2-0.1,24-0.1
		c-10.1,12.5-22.2,20.5-36.6,26.3C146.4,186,149.3,178.1,152.5,170.3z M157.3,152.1c1.1-10.8,2.1-21.1,3.2-31.8h39.1
		c-0.7,10.7-3.6,20.4-8.2,29.7c-0.5,0.9-1.9,2-2.9,2C178.1,152.2,167.8,152.1,157.3,152.1z M179.9,56.1c-9,0-17.1,0.1-25.1-0.1
		c-0.9,0-2.1-1.4-2.5-2.4c-3.1-7.7-6-15.4-9.2-23.7C157.6,35.4,169.4,43.7,179.9,56.1z M103,28.7c6.3-6.3,12.4-6.3,18.7,0
		c7.5,7.5,11.1,17.1,14.5,27.2H88.4C91.8,45.8,95.5,36.2,103,28.7z M140.8,72.3c1.2,10.3,2.5,20.6,3.7,31.4H80.2
		c1.2-10.5,2.4-20.9,3.6-31.4H140.8z M81.5,29.9c-3.2,8.4-6.1,16.3-9.3,24c-0.4,1.1-2.4,2.1-3.7,2.1c-7.5,0.2-14.9,0.1-23.7,0.1
		C55.2,43.6,67.2,35.4,81.5,29.9z M33.6,73.5c0.3-0.7,1.5-1.3,2.4-1.3c10.4-0.1,20.9-0.1,31.5-0.1c-1.1,10.7-2.1,21-3.2,31.8h-39
		C25.7,93,28.9,83.1,33.6,73.5z M36.3,152c-1,0-2.5-1-3-1.9c-4.6-9.3-7.6-19.1-8.3-29.8h39.1c1.1,10.6,2.1,20.9,3.2,31.8
		C56.9,152.1,46.6,152.2,36.3,152z M44.7,168.2c9.2,0,17.3-0.1,25.5,0.1c0.7,0,1.7,1.4,2.1,2.3c3,7.7,6,15.4,9.2,23.8
		C67.1,188.9,55.3,180.6,44.7,168.2z M24.5,370.1c0-6.9,2.8-9.8,9.6-9.8c41.5,0,83.1,0,124.6,0c5.7,0,9.3,2.6,9.3,7.5
		c0.2,18.6,0.1,37.3,0.1,56.3H24.5v-17.5C24.5,394.4,24.5,382.2,24.5,370.1z M120.1,487.9H72.7v-15.4h47.4V487.9z M168.2,447.8
		c-0.3,5.3-3.2,8.3-8.5,8.4c-6.6,0.1-13.3,0-19.9,0H38.6c-13.1,0-14.9-2-13.8-15.7h143.4C168.2,443.2,168.3,445.5,168.2,447.8z
		 M327.9,371.5c0,22.2-0.1,44.3,0.1,66.5c0,3.9-1.2,5.4-4.8,6.6c-45,15.4-89.9,15.5-134.9-0.2c-3.2-1.1-4.3-2.5-4.2-5.9
		c0.2-22.7,0.1-45.3,0.1-68c0-16.4-9.8-26.2-26-26.2c-25.4,0-50.9-0.1-76.3,0.1c-3.6,0-5.5-0.9-7.1-4.4
		c-18.9-42.6-23.4-86.4-12.3-131.8c0.3-1.3,0.8-2.5,1.3-4.1c44.7,22.6,92.1,11.3,121.7-18.2c29-28.8,41.9-76.4,18.6-123
		c7.6-1.6,14.9-3.4,22.4-4.5c33.2-5,65.6-1.8,97.2,9.5c3.4,1.2,4.5,2.8,4.4,6.3c-0.2,12.2-0.1,24.3-0.1,36.5
		C328,126,338,136,353.3,136.1c7.3,0,14.6,0,22.2,0V152h-15.3v16.2h5.2c21.8,0,43.6,0.1,65.4-0.1c3.3,0,5,0.8,6.3,3.9
		c25,56.2,24.7,112.3,0,168.4c-1.4,3.2-3.3,3.9-6.4,3.9c-25.3-0.1-50.6-0.1-75.8-0.1C337.3,344.2,327.9,353.8,327.9,371.5z
		 M343.9,370.2c0-7.2,2.8-10,9.9-10c41.2,0,82.4,0,123.6,0c7.2,0,10.1,2.8,10.1,9.9c0.1,17.8,0,35.6,0,54H344.2
		c-0.1-1.3-0.3-2.6-0.3-3.8C343.9,403.6,343.9,386.9,343.9,370.2z M439.3,487.9H392v-15.4h47.3V487.9z M487.6,447.8
		c-0.2,5.3-3.2,8.3-8.5,8.4c-6.3,0.1-12.6,0-18.9,0H358c-13.1,0-14.9-2-13.8-15.7h143.4C487.6,443.2,487.7,445.5,487.6,447.8z"/>
	<path d="M340,219.1c-3.6,3.5-7.3,7-10.9,10.6c-40.8-40.3-106.6-38.8-146.9,1.1c-3.2-3.4-6.1-6.6-9.1-9.8c-0.4-0.5-0.8-1-1.1-1.5
		C214.2,173.9,294.2,171.1,340,219.1z"/>
	<path d="M317.7,241.7c-3.8,3.3-7.6,6.7-11.5,10.2C273.1,225,239,225,205.1,252.5c-3.5-3.6-7-7.1-10.5-10.7
		C224.4,209.8,281.9,205.7,317.7,241.7z"/>
	<path d="M256.7,280.2c-13.1-0.3-24.2,10.1-24.6,23.1c-0.4,13.3,10.1,24.6,23.3,24.9c13.1,0.3,24.2-10.1,24.6-23.1
		C280.4,291.8,269.9,280.5,256.7,280.2z M256.1,312.2c-4.3,0-7.9-3.6-8-7.9c0-4.3,3.6-8,7.9-8c4.3,0,7.9,3.6,8,7.9
		C264,308.5,260.4,312.2,256.1,312.2z"/>
	<path d="M294.9,264.4c-3.7,3.8-7.2,7.3-10.7,10.9c-18.7-15-37.6-15-56.5,0.3c-3.5-3.7-7-7.2-10.5-10.8
		C234.7,244.3,273.3,241.4,294.9,264.4z"/>
</g>
</svg>
