<?xml version="1.0" encoding="utf-8"?>
<!-- Generator: Adobe Illustrator 26.0.1, SVG Export Plug-In . SVG Version: 6.00 Build 0)  -->
<svg version="1.1" id="Capa_1" xmlns="http://www.w3.org/2000/svg" xmlns:xlink="http://www.w3.org/1999/xlink" x="0px" y="0px"
	 viewBox="0 0 604.5 604.5" style="enable-background:new 0 0 604.5 604.5;" xml:space="preserve">
<style type="text/css">
	.st0{fill:#FFFFFF;}
</style>
<g>
	<path class="st0" d="M472.8,67.5C472.8,67.5,472.8,67.6,472.8,67.5c5.9,5.8,11.8,11.7,17.7,17.5C484.7,79.2,478.8,73.4,472.8,67.5z
		 M479.3,59.1c1-1.2,2-2.4,3-3.5C481.3,56.7,480.3,57.9,479.3,59.1z"/>
	<path d="M540.2,483.9c-0.9,42.9-38.8,76.4-84.3,76.8c-110.6,1.1-221.2,1.1-331.9,0.1c-49.9-0.4-85.6-35.7-86.1-85.6
		c-1.1-111.4-1-222.9,0-334.3c0.4-48,36.9-83.7,85-84.1c101.6-0.9,203.2-0.3,311.5-0.3c-21.1,19.9-32.4,40.1-63.3,39.3
		c-79.4-2.1-159-0.8-238.4-0.7c-37.8,0.1-56.6,17.7-56.7,55.1c-0.4,105.7-0.4,211.4,0,317.1c0.1,36.9,19.3,55.2,56.9,55.3
		c104.1,0.2,208.1,0.2,312.2,0c40.2-0.1,57.6-18,57.7-59c0.1-65.5,1.9-131.2-0.7-196.6c-1.3-32.4,8.8-54.8,38.8-72.9
		C540.8,292.5,542.1,388.3,540.2,483.9z"/>
	<path d="M520.1,157.8C442.4,235.6,362.2,315.9,282.2,396c-21.9-22.1-44.8-45.3-66.1-66.8c79.3-78.9,159.6-158.7,240.2-238.9
		C475.7,110.9,498.6,135.1,520.1,157.8z"/>
	<path d="M543.8,137.6c-17.8-17.6-35.5-35.1-53.3-52.5c-5.9-5.8-11.8-11.7-17.7-17.5c0,0,0,0,0,0c1.5-2.1,3-4,4.3-5.8
		c0.7-0.9,1.4-1.8,2.1-2.6c0,0,0,0,0,0c1-1.3,2-2.4,3-3.5c0,0,0,0,0,0c0.5-0.6,1-1.1,1.5-1.6c0.3-0.3,0.6-0.7,0.9-1
		c0.2-0.2,0.3-0.3,0.5-0.5c15.1-15.3,25.9-11.9,46.7,8.7c5.2,5.2,10.3,10.4,15.5,15.6C574.9,104.2,574.3,113.1,543.8,137.6z"/>
	<path d="M255.6,418c-22.1,4.3-48,9.4-78.6,15.4c5.8-29.9,10.8-55.9,15.9-82.1C214,373.9,234.8,395.9,255.6,418z"/>
</g>
</svg>
