<?xml version="1.0" encoding="utf-8"?>
<!-- Generator: Adobe Illustrator 26.0.1, SVG Export Plug-In . SVG Version: 6.00 Build 0)  -->
<svg version="1.1" id="Layer_1" xmlns="http://www.w3.org/2000/svg" xmlns:xlink="http://www.w3.org/1999/xlink" x="0px" y="0px"
	 viewBox="0 0 250 250" style="enable-background:new 0 0 250 250;" xml:space="preserve">
<g>
	<g>
		<path d="M150.8,165c0.1,0.8-0.6,1.7-1.1,2.4c-10,14.1-22.8,24.8-39.8,29.4c-3.7,1-7.8,0.8-11.7,0.3c-5.2-0.7-8.9-4.8-8.6-10
			c0.3-5.7,0.9-11.7,2.8-17.1c5.7-16.2,12-32.1,18.1-48.1c1.2-3,2.6-6,3.4-9.1c0.4-1.5,0.2-3.8-0.7-4.8c-0.7-0.7-3.4-0.5-4.5,0.3
			c-3,2.1-5.7,4.5-8.2,7.1c-3.1,3.1-5.9,6.6-8.9,9.9c-1.1,1.2-2.5,2.1-4.2,0.8c-1.6-1.2-1.8-2.9-0.7-4.5
			c10.9-15.8,24.3-27.9,41.4-29.2c13.3,0,18.8,4.9,18.4,14c-0.2,4.4-1.2,9-2.7,13.2c-5.7,16.2-11.8,32.3-17.7,48.5
			c-0.8,2.3-1.5,4.7-1.9,7.1c-0.4,3,1.7,4.7,4.4,3.2c2.6-1.5,5-3.5,7.1-5.6c3.6-3.5,6.8-7.4,10.3-11c0.8-0.8,2.5-0.9,3.7-1.3
			C150,162,150.6,163.5,150.8,165z"/>
		<path d="M159.3,66.6c0,12.6-13.1,21.5-24.8,16.7c-8.9-3.6-11.6-16-5.2-24.4c4.7-6.3,11.1-8.6,18.8-7.2
			C155,53.1,159.3,58.9,159.3,66.6z"/>
	</g>
	<g>
		<path d="M125,24c55.7,0,101,45.3,101,101s-45.3,101-101,101S24,180.7,24,125S69.3,24,125,24 M125,0C56,0,0,56,0,125
			s56,125,125,125s125-56,125-125S194,0,125,0L125,0z"/>
	</g>
</g>
</svg>
