<?xml version="1.0" encoding="utf-8"?>
<!-- Generator: Adobe Illustrator 26.0.1, SVG Export Plug-In . SVG Version: 6.00 Build 0)  -->
<svg version="1.1" id="Capa_1" xmlns="http://www.w3.org/2000/svg" xmlns:xlink="http://www.w3.org/1999/xlink" x="0px" y="0px"
	 viewBox="0 0 417.6 417.6" style="enable-background:new 0 0 417.6 417.6;" xml:space="preserve">
<style type="text/css">
	.st0{fill:none;}
	.st1{fill:#050505;}
</style>
<g>
	<rect x="24" y="343.7" class="st0" width="369.6" height="17.7"/>
	<path class="st0" d="M352.5,56.2H65.1v184h287.5L352.5,56.2L352.5,56.2z M312.3,94.1H103V214c0,6.6-5.4,12-12,12s-12-5.4-12-12
		V82.1c0-6.6,5.4-12,12-12h221.3c6.6,0,12,5.4,12,12S318.9,94.1,312.3,94.1z"/>
	<path class="st1" d="M417.6,332.1c0.1-2.1-0.4-4.3-1.5-6.2L376.4,254c0.1-0.6,0.1-1.2,0.1-1.8v-208c0-6.6-5.4-12-12-12H53.1
		c-6.6,0-12,5.4-12,12v208c0,0.6,0.1,1.2,0.1,1.8L1.5,325.9c-1,1.9-1.5,4-1.5,6c0,0,0,0,0,0.1v41.4c0,6.6,5.4,12,12,12h393.6
		c6.6,0,12-5.4,12-12v-41.1C417.6,332.2,417.6,332.2,417.6,332.1z M32.3,319.7L63,264.2h291.6l30.6,55.5H32.3z M65.1,56.2h287.5v184
		H65.1V56.2z M393.6,361.4H24v-17.7h369.6V361.4z"/>
	<path class="st1" d="M312.3,70.1H91c-6.6,0-12,5.4-12,12V214c0,6.6,5.4,12,12,12s12-5.4,12-12V94.1h209.3c6.6,0,12-5.4,12-12
		S318.9,70.1,312.3,70.1z"/>
	<path class="st1" d="M218.3,280H90.1c-6.6,0-12,5.4-12,12s5.4,12,12,12h128.2c6.6,0,12-5.4,12-12C230.3,285.4,224.9,280,218.3,280z
		"/>
	<path class="st1" d="M267,280c-3.2,0-6.2,1.3-8.5,3.5c-2.2,2.2-3.5,5.3-3.5,8.5c0,3.2,1.3,6.3,3.5,8.5c2.2,2.2,5.3,3.5,8.5,3.5
		c3.2,0,6.2-1.3,8.5-3.5c2.2-2.2,3.5-5.3,3.5-8.5c0-3.2-1.3-6.2-3.5-8.5C273.3,281.3,270.2,280,267,280z"/>
	<path class="st1" d="M314.5,280c-3.2,0-6.3,1.3-8.5,3.5c-2.2,2.2-3.5,5.3-3.5,8.5c0,3.2,1.3,6.3,3.5,8.5c2.2,2.2,5.3,3.5,8.5,3.5
		c3.1,0,6.2-1.3,8.5-3.5c2.2-2.2,3.5-5.3,3.5-8.5c0-3.1-1.3-6.2-3.5-8.5C320.8,281.3,317.7,280,314.5,280z"/>
</g>
</svg>
