<?xml version="1.0" encoding="utf-8"?>
<!-- Generator: Adobe Illustrator 26.0.1, SVG Export Plug-In . SVG Version: 6.00 Build 0)  -->
<svg version="1.1" id="Layer_1" xmlns="http://www.w3.org/2000/svg" xmlns:xlink="http://www.w3.org/1999/xlink" x="0px" y="0px"
	 viewBox="0 0 512 512" style="enable-background:new 0 0 512 512;" xml:space="preserve">
<style type="text/css">
	.st0{fill:#BCBCBC;}
	.st1{fill:#D6D6D6;}
	.st2{fill:#606060;}
	.st3{fill:#7F7F7F;}
	.st4{fill:#C3C6C8;}
	.st5{fill:#A4A9AD;}
	.st6{fill:#444444;}
	.st7{fill:#D1D3D3;}
	.st8{fill:#B3B8BA;}
</style>
<rect x="82.5" y="106.6" class="st0" width="336.8" height="39.9"/>
<rect x="82.5" y="170.4" class="st1" width="122.6" height="85"/>
<rect x="228.2" y="179.4" class="st2" width="85.4" height="23.7"/>
<g>
	<rect x="334" y="179.4" class="st3" width="85.4" height="23.7"/>
	<rect x="228.2" y="222.9" class="st3" width="85.4" height="23.7"/>
	<rect x="334" y="222.9" class="st3" width="85.4" height="23.7"/>
</g>
<path class="st4" d="M203.6,447.1c-4,0-7.2,3.2-7.2,7.2c0,4,3.2,7.2,7.2,7.2h104.2v-14.5H203.6L203.6,447.1z"/>
<path class="st5" d="M348.3,461.6c6.5,0,11.7-5.3,11.7-11.7c0-1.4-0.2-2.7-0.7-3.9l0,0l-25.8-77.6H318l26.2,78.8h-36.4
	c-4,0-7.2,3.2-7.2,7.2c0,4,3.2,7.2,7.2,7.2L348.3,461.6L348.3,461.6L348.3,461.6z"/>
<circle class="st6" cx="250.9" cy="348.9" r="10.9"/>
<rect x="8" y="455.6" class="st7" width="192.3" height="14.4"/>
<path class="st8" d="M272.2,470.1c4,0,7.2-3.2,7.2-7.2c0-4-3.2-7.2-7.2-7.2h-71.9v14.4H272.2L272.2,470.1z"/>
<g>
	<rect x="239.9" y="453.2" class="st5" width="19.2" height="2.4"/>
	<rect x="210.5" y="453.2" class="st5" width="19.2" height="2.4"/>
</g>
<g>
	<rect x="181.1" y="453.2" class="st8" width="19.2" height="2.4"/>
	<rect x="151.7" y="453.2" class="st8" width="19.2" height="2.4"/>
	<rect x="122.3" y="453.2" class="st8" width="19.2" height="2.4"/>
	<rect x="93" y="453.2" class="st8" width="19.2" height="2.4"/>
	<rect x="63.6" y="453.2" class="st8" width="19.2" height="2.4"/>
	<rect x="34.2" y="453.2" class="st8" width="19.2" height="2.4"/>
</g>
<path class="st7" d="M403.3,470.1c0-9.4-7.6-17-17-17h-25c-9.4,0-17,7.6-17,17H403.3z"/>
<path class="st4" d="M421.8,470.1c0-9.4-7.6-17-17-17h-19.9c-9.4,0-17,7.6-17,17H421.8z"/>
<path d="M450.6,63.1H51.3c-4.4,0-8,3.6-8,8v228.4c0,4.4,3.6,8,8,8h399.2c4.4,0,8-3.6,8-8V71.1C458.6,66.7,455,63.1,450.6,63.1z
	 M442.6,291.4H59.4V79.1h383.2L442.6,291.4L442.6,291.4z M504,46.5c-5.9-8.1-13.7-12.6-21.9-12.6H44.1c-16.5,0-29.9,13.4-29.9,29.9
	v282.7c0,16.5,13.4,29.9,29.9,29.9h163.2l21.7,65.2H8c-4.4,0-8,3.6-8,8v20.5c0,4.4,3.6,8,8,8h271.4c3.1,0,5.7-1.7,7.1-4.3h50.6
	c1.3,2.5,4,4.3,7.1,4.3h85.2c4.4,0,8-3.6,8-8c0-14.7-12-26.7-26.7-26.7h-38.4l-22.3-67h132.2c16.5,0,29.9-13.4,29.9-29.9V69.6
	C512,62,509,53.4,504,46.5z M388.8,459.4h21.9c2.7,0,5.2,1,7.1,2.7h-36C383.6,460.4,386.1,459.4,388.8,459.4z M192.3,462.1H16v-4.5
	h176.3L192.3,462.1L192.3,462.1z M271.4,462.1h-63.1v-4.5h63.1V462.1z M243.7,434.8l-19.5-58.5h88l19.5,58.5H243.7z M288.6,457.8
	h-1.2v-6.9h1.2c-0.2,1.1-0.3,2.3-0.3,3.5C288.3,455.5,288.4,456.7,288.6,457.8z M342.8,450.9c0.6,0,1.2-0.1,1.8-0.2
	c-2.2,2.1-4,4.5-5.4,7.2h-31.4c-1.9,0-3.5-1.6-3.5-3.5s1.6-3.5,3.5-3.5 M362.9,459.4h1.4c-0.4,0.9-0.7,1.8-1,2.7h-7.5
	C357.7,460.4,360.2,459.4,362.9,459.4z M355.7,444.3c-2.1,0.6-4.1,1.4-6,2.5c1.1-2,1.4-4.3,0.7-6.5l-21.3-64h4 M471.7,346.5
	c0,7.6-6.2,13.8-13.8,13.8H44.1c-7.6,0-13.8-6.2-13.8-13.8v-9.8h441.5L471.7,346.5L471.7,346.5z M471.7,320.6H30.2V63.8
	c0-7.6,6.2-13.8,13.8-13.8h413.8c7.6,0,13.8,6.2,13.8,13.8L471.7,320.6L471.7,320.6z M496,346.5c0,6.9-5,12.6-11.6,13.6
	c2.1-4.1,3.3-8.7,3.3-13.6V63.8c0-4.8-1.1-9.3-3.2-13.4c5.7,2.2,11.4,11.3,11.4,19.2V346.5z"/>
</svg>
