<?xml version="1.0" encoding="utf-8"?>
<!-- Generator: Adobe Illustrator 26.0.1, SVG Export Plug-In . SVG Version: 6.00 Build 0)  -->
<svg version="1.1" id="Layer_1" xmlns="http://www.w3.org/2000/svg" xmlns:xlink="http://www.w3.org/1999/xlink" x="0px" y="0px"
	 viewBox="0 0 512 512" style="enable-background:new 0 0 512 512;" xml:space="preserve">
<style type="text/css">
	.st0{fill:#E2E2E2;}
	.st1{fill:#D8D8D8;}
	.st2{fill:#939393;}
	.st3{fill:#686868;}
	.st4{fill:#F7F7F7;}
	.st5{fill:#707070;}
	.st6{fill:#E5E5E5;}
	.st7{fill:#231F20;}
	.st8{opacity:0.2;}
	.st9{opacity:0.1;}
</style>
<path class="st0" d="M503.4,153.6V56.8c0-11.2-9.1-20.3-20.3-20.3H28.9c-11.2,0-20.3,9.1-20.3,20.3v28.4v15.8v28.4v281.7v28.4v15.8
	v28.4c0,11.2,9.1,20.3,20.3,20.3h454.3c11.2,0,20.3-9.1,20.3-20.3v-28.4v-15.8v-28.4V190.8v-12.2"/>
<rect x="282.4" y="77.9" class="st1" width="178.9" height="178.9"/>
<rect x="327.2" y="122.6" class="st2" width="89.5" height="89.5"/>
<circle class="st3" cx="371.9" cy="166.5" r="15.8"/>
<polyline class="st4" points="238.2,315.2 461.4,315.2 461.4,360.5 135.8,360.5 135.8,315.2 213.4,315.2 "/>
<rect x="282.4" y="8.1" class="st5" width="178.9" height="28.4"/>
<g>
	<rect x="8.6" y="77.9" class="st6" width="28.4" height="178.9"/>
	<rect x="8.6" y="315.2" class="st6" width="28.4" height="129.3"/>
</g>
<polyline class="st4" points="359,444.6 135.8,444.6 135.8,399.3 461.4,399.3 461.4,444.6 383.7,444.6 "/>
<g>
	<path class="st7" d="M503.4,161.7c4.5,0,8.1-3.6,8.1-8.1V56.8c0-15.6-12.7-28.3-28.3-28.3h-13.7V8.1c0-4.5-3.6-8.1-8.1-8.1H282.4
		c-4.5,0-8.1,3.6-8.1,8.1v20.3H28.9c-15.6,0-28.3,12.7-28.3,28.3v21.1v178.9v58.4v129.3v39.1c0,15.6,12.7,28.3,28.3,28.3h454.3
		c15.6,0,28.3-12.7,28.3-28.3V178.6c0-4.5-3.6-8.1-8.1-8.1c-4.5,0-8.1,3.6-8.1,8.1v305.1c0,6.7-5.5,12.2-12.2,12.2H28.9
		c-6.7,0-12.2-5.5-12.2-12.2v-31H37c4.5,0,8.1-3.6,8.1-8.1V315.2c0-4.5-3.6-8.1-8.1-8.1H16.7v-42.2H37c4.5,0,8.1-3.6,8.1-8.1V77.9
		c0-4.5-3.6-8.1-8.1-8.1H16.7V56.8c0-6.7,5.5-12.2,12.2-12.2h253.6h178.9h21.8c6.7,0,12.2,5.5,12.2,12.2v96.8
		C495.3,158.1,498.9,161.7,503.4,161.7z M28.9,323.3v113.2H16.7V323.3H28.9z M28.9,86v162.8H16.7V86H28.9z M290.5,28.4V16.2h162.8
		v12.2L290.5,28.4L290.5,28.4z"/>
	<path class="st7" d="M469.4,77.9c0-4.5-3.6-8.1-8.1-8.1H282.4c-4.5,0-8.1,3.6-8.1,8.1v178.9c0,4.5,3.6,8.1,8.1,8.1h178.9
		c4.5,0,8.1-3.6,8.1-8.1L469.4,77.9L469.4,77.9z M453.3,248.7H290.5V86h162.8V248.7z"/>
	<path class="st7" d="M308.5,185.4c-4.5,0-8.1,3.6-8.1,8.1c0,4.5,3.6,8.1,8.1,8.1h10.6v10.6c0,4.5,3.6,8.1,8.1,8.1h9.7v9.7
		c0,4.5,3.6,8.1,8.1,8.1s8.1-3.6,8.1-8.1v-9.7h10.8v9.7c0,4.5,3.6,8.1,8.1,8.1s8.1-3.6,8.1-8.1v-9.7h10.8v9.7c0,4.5,3.6,8.1,8.1,8.1
		c4.5,0,8.1-3.6,8.1-8.1v-9.7h9.7c4.5,0,8.1-3.6,8.1-8.1v-10.6h10.6c4.5,0,8.1-3.6,8.1-8.1c0-4.5-3.6-8.1-8.1-8.1h-10.6v-10.8h10.6
		c4.5,0,8.1-3.6,8.1-8.1c0-4.5-3.6-8.1-8.1-8.1h-10.6v-10.8h10.6c4.5,0,8.1-3.6,8.1-8.1c0-4.5-3.6-8.1-8.1-8.1h-10.6v-8.8
		c0-4.5-3.6-8.1-8.1-8.1h-9.7v-11.5c0-4.5-3.6-8.1-8.1-8.1c-4.5,0-8.1,3.6-8.1,8.1v11.5H380v-11.5c0-4.5-3.6-8.1-8.1-8.1
		s-8.1,3.6-8.1,8.1v11.5H353v-11.5c0-4.5-3.6-8.1-8.1-8.1s-8.1,3.6-8.1,8.1v11.5h-9.7c-4.5,0-8.1,3.6-8.1,8.1v8.8h-10.6
		c-4.5,0-8.1,3.6-8.1,8.1c0,4.5,3.6,8.1,8.1,8.1h10.6v10.8h-10.6c-4.5,0-8.1,3.6-8.1,8.1c0,4.5,3.6,8.1,8.1,8.1h10.6v10.8
		L308.5,185.4L308.5,185.4z M335.2,130.7h73.3V204h-73.3V130.7z"/>
	<path class="st7" d="M461.4,368.6c4.5,0,8.1-3.6,8.1-8.1v-45.3c0-4.5-3.6-8.1-8.1-8.1h-24.5v-8.4c0-4.5-3.6-8.1-8.1-8.1
		s-8.1,3.6-8.1,8.1v8.4H238.2c-4.5,0-8.1,3.6-8.1,8.1s3.6,8.1,8.1,8.1h182.4v29.1H176.5v-29.1h36.9c4.5,0,8.1-3.6,8.1-8.1
		s-3.6-8.1-8.1-8.1h-36.9v-8.4c0-4.5-3.6-8.1-8.1-8.1c-4.5,0-8.1,3.6-8.1,8.1v8.4h-24.5c-4.5,0-8.1,3.6-8.1,8.1v45.3
		c0,4.5,3.6,8.1,8.1,8.1h24.5v22.6h-24.5c-4.5,0-8.1,3.6-8.1,8.1v45.3c0,4.5,3.6,8.1,8.1,8.1h24.5v7.8c0,4.5,3.6,8.1,8.1,8.1
		c4.5,0,8.1-3.6,8.1-8.1v-7.8H359c4.5,0,8.1-3.6,8.1-8.1c0-4.5-3.6-8.1-8.1-8.1H176.5v-29.1h244.1v29.1h-36.9
		c-4.5,0-8.1,3.6-8.1,8.1c0,4.5,3.6,8.1,8.1,8.1h36.9v7.8c0,4.5,3.6,8.1,8.1,8.1s8.1-3.6,8.1-8.1v-7.8h24.5c4.5,0,8.1-3.6,8.1-8.1
		v-45.3c0-4.5-3.6-8.1-8.1-8.1h-24.5v-22.6L461.4,368.6L461.4,368.6z M436.8,323.3h16.4v29.1h-16.4V323.3z M143.9,352.4v-29.1h16.4
		v29.1H143.9z M160.4,436.5h-16.4v-29.1h16.4V436.5z M453.3,407.4v29.1h-16.4v-29.1H453.3z M420.7,391.2H176.5v-22.6h244.1V391.2z"
		/>
	<path class="st7" d="M139.6,256.8c0,4.5,3.6,8.1,8.1,8.1c4.5,0,8.1-3.6,8.1-8.1V112.3c0-4.5-3.6-8.1-8.1-8.1
		c-4.5,0-8.1,3.6-8.1,8.1V256.8z"/>
	<path class="st7" d="M147.7,97c4.5,0,8.1-3.6,8.1-8.1v-11c0-4.5-3.6-8.1-8.1-8.1c-4.5,0-8.1,3.6-8.1,8.1v11
		C139.6,93.4,143.2,97,147.7,97z"/>
	<path class="st7" d="M204.3,256.8c0,4.5,3.6,8.1,8.1,8.1c4.5,0,8.1-3.6,8.1-8.1V112.3c0-4.5-3.6-8.1-8.1-8.1
		c-4.5,0-8.1,3.6-8.1,8.1V256.8z"/>
	<path class="st7" d="M212.4,97c4.5,0,8.1-3.6,8.1-8.1v-11c0-4.5-3.6-8.1-8.1-8.1c-4.5,0-8.1,3.6-8.1,8.1v11
		C204.3,93.4,208,97,212.4,97z"/>
	<path class="st7" d="M180.1,230.5c4.5,0,8.1-3.6,8.1-8.1V77.9c0-4.5-3.6-8.1-8.1-8.1c-4.5,0-8.1,3.6-8.1,8.1v144.6
		C172,226.9,175.6,230.5,180.1,230.5z"/>
	<path class="st7" d="M172,256.8c0,4.5,3.6,8.1,8.1,8.1c4.5,0,8.1-3.6,8.1-8.1v-11c0-4.5-3.6-8.1-8.1-8.1c-4.5,0-8.1,3.6-8.1,8.1
		V256.8z"/>
	<path class="st7" d="M244.8,230.5c4.5,0,8.1-3.6,8.1-8.1V77.9c0-4.5-3.6-8.1-8.1-8.1c-4.5,0-8.1,3.6-8.1,8.1v144.6
		C236.7,226.9,240.3,230.5,244.8,230.5z"/>
	<path class="st7" d="M236.7,256.8c0,4.5,3.6,8.1,8.1,8.1c4.5,0,8.1-3.6,8.1-8.1v-11c0-4.5-3.6-8.1-8.1-8.1c-4.5,0-8.1,3.6-8.1,8.1
		V256.8z"/>
	<path class="st7" d="M371.9,190.4c13.2,0,23.9-10.7,23.9-23.9s-10.7-23.9-23.9-23.9S348,153.3,348,166.5
		C348,179.7,358.7,190.4,371.9,190.4z M371.9,158.8c4.3,0,7.7,3.5,7.7,7.7c0,4.3-3.5,7.7-7.7,7.7c-4.3,0-7.7-3.5-7.7-7.7
		C364.2,162.2,367.6,158.8,371.9,158.8z"/>
</g>
<g class="st8">
	<rect x="282.4" y="77.9" class="st7" width="25.3" height="178.9"/>
</g>
<g class="st8">
	<rect x="135.8" y="315.2" class="st7" width="25.3" height="45.3"/>
</g>
<g class="st8">
	<rect x="327.2" y="122.6" class="st7" width="25.3" height="89.5"/>
</g>
<g class="st9">
	<rect x="282.4" y="8.1" class="st7" width="25.3" height="28.4"/>
</g>
<g class="st8">
	<rect x="135.8" y="399.3" class="st7" width="25.3" height="45.3"/>
</g>
<g class="st8">
	<path class="st7" d="M25.4,483.7v-28.4v-15.8v-28.4V129.4v-28.4V85.2V56.8c0-11.2,9.1-20.3,20.3-20.3H20.2C9,36.5,0,45.6,0,56.8
		v28.4v15.8v28.4v281.7v28.4v15.8v28.4c0,11.2,9.1,20.3,20.3,20.3h25.4C34.5,503.9,25.4,494.8,25.4,483.7z"/>
</g>
</svg>
