<?xml version="1.0" encoding="utf-8"?>
<!-- Generator: Adobe Illustrator 26.0.1, SVG Export Plug-In . SVG Version: 6.00 Build 0)  -->
<svg version="1.1" id="Layer_1" xmlns="http://www.w3.org/2000/svg" xmlns:xlink="http://www.w3.org/1999/xlink" x="0px" y="0px"
	 viewBox="0 0 122.9 92.4" style="enable-background:new 0 0 122.9 92.4;" xml:space="preserve">
<g>
	<path d="M104.7,3v43.2c-0.2,0-0.3,0-0.5,0c-12.9,0-25.8,0-38.6,0h-7.6V9.5c0.4-0.1,0.7-0.1,1-0.2c1.6-0.2,3.3-0.5,4.9-0.7
		c1.7-0.2,3.3-0.5,5-0.7c1.5-0.2,2.9-0.4,4.4-0.6c1.7-0.2,3.3-0.5,5-0.7c1.6-0.2,3.3-0.5,4.9-0.7c1.7-0.2,3.3-0.5,5-0.7
		c1.5-0.2,2.9-0.4,4.4-0.6c1.7-0.2,3.3-0.5,5-0.7c1.5-0.2,2.9-0.4,4.4-0.6C102.8,3.3,103.7,3.2,104.7,3z"/>
	<path d="M104.5,89.4c-0.1,0-0.2-0.1-0.2-0.1c-0.6-0.1-1.3-0.2-1.9-0.3c-2.5-0.3-5-0.7-7.5-1c-2.5-0.3-5-0.7-7.5-1.1s-5-0.7-7.5-1
		c-2.5-0.3-5-0.7-7.5-1.1s-5-0.7-7.5-1c-2.2-0.3-4.4-0.6-6.6-0.9c-0.1,0-0.2,0-0.2,0c-0.1-0.5-0.1-32.8,0-33.1h0.4
		c15.3,0,30.6,0,45.9,0c0.1,0,0.3,0,0.4,0v39.3c0,0.1,0,0.2,0,0.3C104.7,89.5,104.6,89.4,104.5,89.4z"/>
	<path d="M54.2,46.2H27c-2.8,0-5.6,0-8.4,0c-0.1,0-0.3,0-0.4,0V15c0.5-0.1,1.1-0.1,1.6-0.2c1.5-0.2,3-0.4,4.5-0.6
		c1.7-0.2,3.4-0.5,5-0.7c1.5-0.2,3-0.4,4.6-0.6c1.7-0.2,3.4-0.5,5.1-0.7c1.5-0.2,3-0.4,4.5-0.6c1.5-0.2,3-0.4,4.5-0.6
		c1.5-0.2,3-0.4,4.6-0.6c0.4-0.1,0.9-0.1,1.3-0.2c0.1,0,0.2,0,0.3,0C54.3,10.5,54.3,45.7,54.2,46.2z"/>
	<path d="M54.3,49.8v32.4c-0.2,0-0.3,0-0.4,0c-1.9-0.3-3.7-0.5-5.6-0.8c-1.5-0.2-3-0.4-4.5-0.6c-1.7-0.2-3.4-0.5-5.1-0.7
		c-1.5-0.2-3-0.4-4.5-0.6c-1.7-0.2-3.4-0.5-5-0.7c-1.5-0.2-3-0.4-4.5-0.6c-1.7-0.2-3.4-0.5-5.1-0.7c-0.4-0.1-0.9-0.1-1.3-0.2V49.8
		c0.1,0,0.3,0,0.4,0c11.7,0,23.4,0,35.2,0H54.3z"/>
</g>
</svg>
