<?xml version="1.0" encoding="utf-8"?>
<!-- Generator: Adobe Illustrator 26.0.1, SVG Export Plug-In . SVG Version: 6.00 Build 0)  -->
<svg version="1.1" id="Capa_1" xmlns="http://www.w3.org/2000/svg" xmlns:xlink="http://www.w3.org/1999/xlink" x="0px" y="0px"
	 viewBox="0 0 180 180" style="enable-background:new 0 0 180 180;" xml:space="preserve">
<style type="text/css">
	.st0{fill:none;stroke:#000000;stroke-width:7;stroke-miterlimit:10;}
	.st1{fill:none;stroke:#000000;stroke-width:3;stroke-miterlimit:10;}
	.st2{fill:none;stroke:#000000;stroke-width:4;stroke-miterlimit:10;}
	.st3{fill:none;stroke:#000000;stroke-width:6;stroke-miterlimit:10;}
	.st4{fill:none;}
	.st5{font-family:'MyriadPro-Regular';}
	.st6{font-size:7.6221px;}
</style>
<g>
	<path d="M174.3,68.2c0.1-7.4-0.8-14.6-3.1-21.7c-2.3-7.2-4-14.5-6.2-21.7c-1.7-5.8-7.2-9.5-13.9-9.5c-40.7,0-81.4,0-122.2,0
		c-7,0-12.3,3.7-14.1,9.8c-2.6,8.8-5,17.6-7.5,26.4c-0.4,1.4-1.1,2.8-1.6,4.1v101.7c2.8,2.5,5.6,5,8.4,7.5h151.7
		c6.4-2.8,8.6-7.2,8.6-13.6C174,123.5,174.1,95.9,174.3,68.2z M13.3,50.9c2.2-8,4.5-15.9,6.7-23.9c1.5-5.2,3.7-6.7,9.8-6.7
		c40.1,0,80.3,0,120.4,0c4,0,7.6,0.8,8.8,4.4c3.1,9.9,5.8,19.9,8.8,30.2H12.4C12.7,53.4,12.9,52.2,13.3,50.9z M168.5,64.1
		c0,29.4,0,58.8,0,88.2c0,6.5-0.9,7.4-8.2,7.4c-46,0-92.1,0-138.1,0c-10.6,0-10.8-0.2-10.8-9.6V60.3h157.2V64.1z"/>
	<path d="M59.2,73.1C37.7,73.1,19.8,91,19.8,112.5c0,21.4,17.7,39.1,39,39.2c21.3,0.1,39.4-17.6,39.5-38.8
		C98.5,91.4,80.6,73.2,59.2,73.1z M91.4,102.6c1,3.9-1.8,4.3-4.4,5.6c-2.5-10.1-7.9-17.8-17.6-21.5c-3.7-1.4-4.6-3.8-4.8-7.1
		C77,80.9,88.3,90.8,91.4,102.6z M65.5,91.2c9,2.4,14.6,9.2,15.5,18.6c-5.2,0.1-9.4,0.1-14.1-4.3C61.3,100.2,66.5,96.1,65.5,91.2z
		 M69,132.4c-1.1-4.4-4.4-8.1-1.7-12.5c3.1-4.9,3.2-4.8,13.3-4.1C80.9,122.3,76.3,129.1,69,132.4z M64.6,112.8
		c-0.1,3.2-2.4,5.3-5.8,5.2c-3.3-0.1-5.5-2.4-5.3-5.7c0.2-3.4,1.9-5.4,5.5-5.4C62.6,106.9,64.8,109.2,64.6,112.8z M63.5,134.4
		c-7.5,1.4-14-0.2-19.8-5.2c4.6-5.5,9.6-8.6,16.9-4.5C61.5,127.4,62.4,130.7,63.5,134.4z M50.4,104.5c-2.8-1.9-5.8-3.9-8.8-5.9
		c3.9-6,11.6-9.4,18.4-8.2C60.2,97.3,57.7,102.4,50.4,104.5z M33.2,134.4c-7.1-8.9-9.1-18.7-7.2-29.4c0.7-3.9,3.5-3.1,5.6-3
		c0,5.5-0.2,10.9,0.1,16.2c0.1,2.3,1.1,4.8,2.3,6.6C36.4,128.2,36.2,131.1,33.2,134.4z M29.6,96.8c4.3-9.9,16.7-18.2,26-17.6
		c1.6,0.1,3.1,2.4,4.3,4.4c-9.7,1.2-17.3,5-23.4,12.2C35.5,96.9,32.5,96.4,29.6,96.8z M38.2,103.7c3.9,1.8,7.9,3.2,9.6,7.4
		c2.9,7.5-3.3,9.7-8.1,13.2C36.1,117.6,35.8,111.1,38.2,103.7z M40.3,140.7c-3.6-2.3-0.6-4.5-0.2-6.3c4.9,2,9.5,4.1,14.3,5.6
		c2.4,0.8,5.3,0.6,7.9,0.3c5-0.5,5-0.6,8.6,3.8C59.8,147.6,49.8,146.6,40.3,140.7z M79.2,139.7c-2.2,1.7-2.7,1.4-6.5-2.4
		c1.6-1.3,3.2-2.5,4.7-3.9c4.6-4,8-8.9,8.9-14.9c0.6-3.8,2.4-5.4,6.4-6.2C92.6,123.8,88.1,132.9,79.2,139.7z"/>
	<path d="M160.1,130c-0.1-5.5-3.5-8.9-9-8.9c-10.8-0.1-21.6-0.1-32.4,0c-5.4,0.1-8.9,3.5-9.1,9c-0.2,5.1-0.1,10.1,0,15.2
		c0.1,5.8,3.7,9.4,9.6,9.5c5.2,0.1,10.4,0,15.6,0c5.3,0,10.7,0.1,16,0c5.9-0.1,9.3-3.6,9.4-9.6C160.1,140.1,160.2,135,160.1,130z
		 M131.8,149c-4.7,0-9.3,0.2-13.8-0.1c-1-0.1-2.6-1.8-2.7-2.8c-0.3-5.4-0.3-10.9,0-16.4c0.1-1.1,1.9-2.9,3-3
		c4.4-0.3,8.9-0.1,13.5-0.1V149z M154.4,145.7c-0.1,1.2-2,3.1-3.2,3.2c-4.3,0.4-8.6,0.2-13.3,0.2v-22.5c4.6,0,9.1-0.2,13.5,0.1
		c1.1,0.1,2.9,1.9,3,3.1C154.8,135.1,154.8,140.4,154.4,145.7z"/>
	<path class="st0" d="M171.4,63.4v91.1c0,5-4.6,9.2-10.3,9.2H18.9c-5.7,0-10.3-4.1-10.3-9.2V63.4c0-3.3,3-6,6.7-6h149.4
		C168.4,57.4,171.4,60.1,171.4,63.4z"/>
	<ellipse class="st1" cx="89.9" cy="36.5" rx="33.6" ry="11.4"/>
	<circle class="st2" cx="21.4" cy="76.1" r="6.7"/>
	<circle class="st2" cx="96.8" cy="76.1" r="6.7"/>
	<circle class="st2" cx="21.4" cy="150" r="6.7"/>
	<circle class="st2" cx="96.8" cy="150" r="6.7"/>
	<path d="M136.7,106.1h-2.8c-1,0-1.8-0.8-1.8-1.8v-6.7c0-1,0.8-1.8,1.8-1.8h2.8c1,0,1.8,0.8,1.8,1.8v6.7
		C138.5,105.3,137.7,106.1,136.7,106.1z"/>
	<path d="M125.7,143.1h-2.8c-1,0-1.8-0.8-1.8-1.8v-6.7c0-1,0.8-1.8,1.8-1.8h2.8c1,0,1.8,0.8,1.8,1.8v6.7
		C127.5,142.4,126.7,143.1,125.7,143.1z"/>
	<g>
		<path d="M126.9,95.1h-2.8c-1,0-1.8-0.8-1.8-1.8v-6.7c0-1,0.8-1.8,1.8-1.8h2.8c1,0,1.8,0.8,1.8,1.8v6.7
			C128.6,94.3,127.8,95.1,126.9,95.1z"/>
		<path d="M146.6,95.1h-2.8c-1,0-1.8-0.8-1.8-1.8v-6.7c0-1,0.8-1.8,1.8-1.8h2.8c1,0,1.8,0.8,1.8,1.8v6.7
			C148.3,94.3,147.5,95.1,146.6,95.1z"/>
	</g>
	<path class="st3" d="M117.8,77.2h34.9c2.1,0,3.8,1.7,3.8,3.8v13c0,10.1-8.2,18.3-18.3,18.3h-6.1c-10.1,0-18.3-8.2-18.3-18.3V81
		C114,78.9,115.7,77.2,117.8,77.2z"/>
	<rect x="138.9" y="134.9" class="st4" width="15" height="10.7"/>
	<text transform="matrix(1 0 0 1 140.5889 140.3027)" class="st5 st6">220</text>
</g>
</svg>
