<?xml version="1.0" encoding="utf-8"?>
<!-- Generator: Adobe Illustrator 26.0.1, SVG Export Plug-In . SVG Version: 6.00 Build 0)  -->
<svg version="1.1" id="Layer_1" xmlns="http://www.w3.org/2000/svg" xmlns:xlink="http://www.w3.org/1999/xlink" x="0px" y="0px"
	 viewBox="0 0 20 20" style="enable-background:new 0 0 20 20;" xml:space="preserve">
<g>
	<path d="M16.7,5.7c-0.5,0-1,0-1.5,0H15V5.6c0-1,0-2.1,0-3.1c0-0.6-0.4-0.9-0.9-0.9c-2.7,0-5.4,0-8.1,0c-0.6,0-1,0.4-1,1
		c0,1,0,2,0,3.1v0.1H4.8c-0.5,0-1,0-1.6,0c-0.8,0-1.4,0.6-1.4,1.4c0,2.1,0,4.1,0,6.2c0,0.8,0.6,1.4,1.4,1.4c0.5,0,1,0,1.6,0H5v0.1
		c0,0.8,0,1.7,0,2.5c0,0.6,0.4,1,1,1c2.7,0,5.4,0,8.1,0c0.6,0,1-0.4,1-1c0-0.9,0-1.7,0-2.6v-0.1h1.7c0.8,0,1.4-0.6,1.4-1.4
		c0-2,0-4.1,0-6.1C18.1,6.3,17.5,5.7,16.7,5.7z M5.7,5.6c0-1,0-2,0-3c0-0.2,0.1-0.3,0.3-0.3c2.7,0,5.4,0,8.1,0
		c0.2,0,0.3,0.1,0.3,0.3v3.2H5.7V5.6z M14.3,17.5c0,0.2-0.1,0.3-0.3,0.3c-0.8,0-1.6,0-2.4,0H6c-0.2,0-0.3-0.1-0.3-0.3v-6.8h8.7V17.5
		z M17.5,13.4c0,0.4-0.3,0.7-0.7,0.7c-0.5,0-1.1,0-1.6,0c0,0-0.1,0-0.1,0v-0.2c0-1.2,0-2.4,0-3.6c0-0.3-0.1-0.4-0.4-0.4H5.4
		C5.1,9.9,5,10,5,10.3c0,1.2,0,2.4,0,3.6v0.1H4.9c-0.5,0-1,0-1.6,0c-0.4,0-0.8-0.3-0.8-0.8c0-2.1,0-4.1,0-6.2c0-0.4,0.3-0.8,0.8-0.8
		c4.5,0,9,0,13.4,0c0.4,0,0.8,0.3,0.8,0.8C17.5,9.2,17.5,11.3,17.5,13.4z"/>
	<path d="M4.6,8.2c0,0.2-0.2,0.3-0.3,0.3c-0.2,0-0.3-0.2-0.3-0.3c0-0.2,0.2-0.3,0.3-0.3C4.5,7.8,4.6,8,4.6,8.2z"/>
	<path d="M12.8,14.2c0,0.2-0.1,0.3-0.3,0.3c-0.1,0-0.1,0-0.2,0c-1.5,0-3.1,0-4.6,0c-0.3,0-0.5-0.2-0.4-0.4c0-0.1,0.1-0.2,0.3-0.2
		c0,0,0.1,0,0.1,0c0.8,0,1.6,0,2.4,0c0,0,0,0,0,0c0.8,0,1.6,0,2.3,0C12.6,13.8,12.7,14,12.8,14.2z"/>
	<path d="M12.7,12.4c-0.1,0.1-0.2,0.2-0.3,0.2c-0.8,0-1.6,0-2.4,0c-0.8,0-1.6,0-2.4,0c-0.3,0-0.4-0.2-0.3-0.5
		c0.1-0.1,0.2-0.2,0.3-0.2c0.5,0,1,0,1.6,0c1.1,0,2.1,0,3.2,0C12.7,11.9,12.8,12.1,12.7,12.4z"/>
	<path d="M12.8,16.1c0,0.2-0.1,0.3-0.4,0.3c-0.8,0-1.6,0-2.4,0c-0.8,0-1.6,0-2.4,0c-0.2,0-0.3-0.1-0.3-0.2c0-0.1,0-0.3,0.1-0.4
		c0.1,0,0.1-0.1,0.2-0.1c1.6,0,3.2,0,4.8,0C12.6,15.8,12.8,15.9,12.8,16.1z"/>
</g>
</svg>
