<?xml version="1.0" encoding="utf-8"?>
<!-- Generator: Adobe Illustrator 26.0.1, SVG Export Plug-In . SVG Version: 6.00 Build 0)  -->
<svg version="1.1" id="Capa_1" xmlns="http://www.w3.org/2000/svg" xmlns:xlink="http://www.w3.org/1999/xlink" x="0px" y="0px"
	 viewBox="0 0 60 60" style="enable-background:new 0 0 60 60;" xml:space="preserve">
<style type="text/css">
	.st0{fill:none;stroke:#000000;stroke-width:1.5;stroke-linecap:round;stroke-linejoin:round;stroke-miterlimit:10;}
	.st1{fill:none;stroke:#000000;stroke-width:0.75;stroke-linecap:round;stroke-linejoin:round;stroke-miterlimit:10;}
	.st2{fill:none;stroke:#000000;stroke-width:0.5;stroke-linecap:round;stroke-linejoin:round;stroke-miterlimit:10;}
</style>
<g>
	<path class="st0" d="M26.6,3.8c0.9,0,1.7-0.8,1.7-1.7c0-0.1,0-0.1,0-0.2h9.3c0.8,0,1.5,0.7,1.5,1.5v21.4c0,0.7-0.6,1.3-1.3,1.3
		h-1.6c-0.7,0-1.3,0.6-1.3,1.3v0.3c0,0.7,0.6,1.3,1.3,1.3h1.6c0.7,0,1.3,0.6,1.3,1.3v26.4c0,0.8-0.7,1.5-1.5,1.5h-9.3
		c0-0.9-0.7-1.7-1.7-1.7c-0.9,0-1.7,0.8-1.7,1.7h-1.2c-1.5,0-2.8-1.3-2.8-2.8V4.7c0-1.6,1.3-2.8,2.8-2.8H25c0,0.1,0,0.1,0,0.2
		C24.9,3,25.7,3.8,26.6,3.8z"/>
	
		<rect x="36" y="45.8" transform="matrix(-5.138639e-11 -1 1 -5.138639e-11 -10.1072 84.8604)" class="st1" width="2.7" height="3.5"/>
	
		<rect x="36" y="42.5" transform="matrix(-5.207206e-11 -1 1 -5.207206e-11 -6.8424 81.5956)" class="st1" width="2.7" height="3.5"/>
	
		<rect x="36" y="39.2" transform="matrix(-5.138639e-11 -1 1 -5.138639e-11 -3.5777 78.3309)" class="st1" width="2.7" height="3.5"/>
	<rect x="36" y="36" transform="matrix(-5.138639e-11 -1 1 -5.138639e-11 -0.3129 75.0661)" class="st1" width="2.7" height="3.5"/>
	
		<rect x="36" y="32.7" transform="matrix(-5.207206e-11 -1 1 -5.207206e-11 2.9518 71.8014)" class="st1" width="2.7" height="3.5"/>
	<rect x="36" y="19" transform="matrix(-5.207206e-11 -1 1 -5.207206e-11 16.6148 58.1384)" class="st1" width="2.7" height="3.5"/>
	
		<rect x="36" y="15.8" transform="matrix(-5.138639e-11 -1 1 -5.138639e-11 19.8796 54.8736)" class="st1" width="2.7" height="3.5"/>
	
		<rect x="36" y="12.5" transform="matrix(-5.138639e-11 -1 1 -5.138639e-11 23.1443 51.6089)" class="st1" width="2.7" height="3.5"/>
	
		<rect x="36" y="9.2" transform="matrix(-5.138639e-11 -1 1 -5.138639e-11 26.4091 48.3441)" class="st1" width="2.7" height="3.5"/>
	<rect x="36" y="49" transform="matrix(-5.138639e-11 -1 1 -5.138639e-11 -13.372 88.1252)" class="st1" width="2.7" height="3.5"/>
	<circle class="st1" cx="35.3" cy="55.1" r="1.3"/>
	<circle class="st1" cx="35.3" cy="5.8" r="1.3"/>
	<g>
		
			<rect x="25.4" y="45.3" transform="matrix(8.381302e-11 -1 1 8.381302e-11 -21.5293 77.6478)" class="st2" width="5.3" height="8.6"/>
		
			<rect x="25.4" y="38.8" transform="matrix(8.346752e-11 -1 1 8.346752e-11 -14.9998 71.1183)" class="st2" width="5.3" height="8.6"/>
		
			<rect x="25.4" y="32.2" transform="matrix(8.346752e-11 -1 1 8.346752e-11 -8.4703 64.5888)" class="st2" width="5.3" height="8.6"/>
		
			<rect x="25.4" y="25.7" transform="matrix(8.346752e-11 -1 1 8.346752e-11 -1.9407 58.0593)" class="st2" width="5.3" height="8.6"/>
		
			<rect x="25.4" y="19.2" transform="matrix(8.346752e-11 -1 1 8.346752e-11 4.5888 51.5298)" class="st2" width="5.3" height="8.6"/>
		
			<rect x="25.4" y="12.6" transform="matrix(8.381302e-11 -1 1 8.381302e-11 11.1183 45.0002)" class="st2" width="5.3" height="8.6"/>
		
			<rect x="25.4" y="6.1" transform="matrix(8.346752e-11 -1 1 8.346752e-11 17.6478 38.4707)" class="st2" width="5.3" height="8.6"/>
	</g>
</g>
</svg>
