<?xml version="1.0" encoding="utf-8"?>
<!-- Generator: Adobe Illustrator 26.0.1, SVG Export Plug-In . SVG Version: 6.00 Build 0)  -->
<svg version="1.1" id="Layer_1" xmlns="http://www.w3.org/2000/svg" xmlns:xlink="http://www.w3.org/1999/xlink" x="0px" y="0px"
	 viewBox="0 0 250 250" style="enable-background:new 0 0 250 250;" xml:space="preserve">
<g>
	<path d="M195.7,57.5C185.3,23.6,153.8,0.4,118.1,0C82.6-0.4,50.7,22.8,39.7,56.9c-10.8,33.4,0.8,74.3,37.7,96.2
		c-1.4,0.6-2.5,1.1-3.6,1.6c-26.9,12.1-46.3,31.6-57.6,58.8c-2.7,6.5-4.4,13.4-6.2,20.2c-1.4,5.4,2,10.4,7.1,11.4
		c5,1,9.6-2.1,10.9-7.4c0.3-1.1,0.5-2.1,0.7-3.2c10.1-46,57-77.4,103.3-69.2c9.7,1.7,18.9,4.7,27.7,9.1c5.4,2.7,11,0.6,13.1-4.4
		c1.9-4.5,0.1-9.4-4.5-11.9c-3.4-1.8-6.9-3.3-10.5-5.1C193.6,131.8,206.3,92,195.7,57.5z M117.2,144.9C82,144.6,54,116.1,54.3,81
		c0.3-34.7,29-62.7,63.8-62.4c35.2,0.4,63,28.8,62.7,64.1C180.5,117.2,151.8,145.2,117.2,144.9z"/>
	<path d="M238.9,208.8c-1.8,3-4.6,4.5-8.1,4.5c-7.7,0-15.4,0-23.2,0h-3.8c-0.1,1.4-0.2,2.5-0.2,3.7c0,7.6,0,15.2,0,22.8
		c0,6-3.8,10.1-9.1,10.2c-5.5,0.1-9.4-4-9.4-10.2c-0.1-7.5,0-15,0-22.5v-4h-3.8c-7.8,0-15.7,0.1-23.5,0c-5.8-0.1-9.6-3.8-9.6-9.2
		c0-5.3,4-9.1,9.7-9.1c8.9-0.1,17.8,0,27.1,0v-5.3c0-7.2-0.1-14.4,0-21.5c0.1-6,3.9-10.1,9.2-10.2c5.4-0.1,9.3,4.2,9.4,10.3
		c0.1,8.8,0,17.6,0,26.7c9.4,0,18.4-0.1,27.2,0C238.2,195.1,242.6,202.6,238.9,208.8z"/>
</g>
</svg>
