<?xml version="1.0" encoding="utf-8"?>
<!-- Generator: Adobe Illustrator 26.0.1, SVG Export Plug-In . SVG Version: 6.00 Build 0)  -->
<svg version="1.1" id="Layer_1" xmlns="http://www.w3.org/2000/svg" xmlns:xlink="http://www.w3.org/1999/xlink" x="0px" y="0px"
	 viewBox="0 0 512 512" style="enable-background:new 0 0 512 512;" xml:space="preserve">
<style type="text/css">
	.st0{fill:#3B82F6;}
</style>
<g>
	<path class="st0" d="M101.7,270.6c15.7-8.7,22.1-24.6,32.2-44.5c7-14,13.1-26,25.5-42.8h2.8c16.8,22.1,33.3,42.5,53.2,63.5
		c20.4,21.5,39.4,30.2,58.2,30.2h3.4v35.8h-3.4c-23.8,0-40-9.2-56.8-29.1L216,284v4.5c0,38.6-19,57.9-35,57.9
		c-27.1,0-52.9-27.1-59-60.1h-1.4C110.2,302,95.1,312.9,73,312.9c-16.2,0-30.5-4.8-42-16.2c-17.1-17.3-18.5-36.9-18.5-78.1
		c0-53.2-3.1-108.8-7.3-168.1c9.5-10.4,18.2-19.6,26.3-26l2,1.1C38,86.9,38,159.3,38,228.1V244c0,17.9,10.1,26,21,29.9
		c7,2.5,14.3,3.1,17.9,3.1C83.5,277,94.2,274.8,101.7,270.6z M153.5,221.3c-8.7,16.2-13.7,26.6-13.7,38c0,21.8,18.2,49.8,43.6,49.8
		c7,0,15.1-8.4,15.1-20.4c0-7.8-1.7-13.7-9.5-24.3c-10.4-14.5-22.4-28-34.1-43.1L153.5,221.3L153.5,221.3z"/>
	<path class="st0" d="M502.3,193.1c3.4,21,4.5,38,4.5,49.8c0,12.6-5,28.5-10.1,38.3c-10.6,17.6-25.2,30.8-41.4,30.8
		c-12,0-24.9-9-35-23.2h-2.2c-12.6,13.7-28.3,24.1-49,24.1c-15.4,0-25.2-7.3-26.9-23.8h-1.1c-17.1,19.9-40.6,23.8-59.6,23.8h-4.8
		c-15.4,0-19.6-11.2-19.6-18.7c0-6.7,4.5-17.1,19.6-17.1h9.5c25.5-0.3,45.6-6.7,59-26l15.4-22.1l21.5-7.6l1.1,1.4
		c-11.2,17.9-19,31.9-19,40.3c0,8.7,5.9,14,14.5,14c8.1,0,17.3-2.8,24.9-8.1c9.8-7.3,11.2-15.4,19.9-44.5l16.8-9.8l1.7,1.1
		c-2.2,9-3.6,19.6-3.6,27.4c0,21.3,15.7,32.2,29.1,32.2c7.8,0,14.8-4.2,14.8-12.6c0-10.9-3.4-28.8-7-45.3
		c7.8-9.2,16.2-17.6,25.2-25.2L502.3,193.1z"/>
	<path class="st0" d="M22.6,432.1l3.7,7.1c1.3,2.6,2.6,5.5,2.6,10v5.8c0,4.7-2.5,9.7-6.5,14.6c-3.1,3.4-5.9,4.8-8.5,4.8
		c-3.8,0-8.2-1.4-13.3-4.1l0.6-1.8c1.6,0.5,3.5,0.9,5.7,0.9c7.3-0.1,14.7-6.4,18.1-14.2c0.4-0.9,0.6-1.7,0.6-2.3
		c0-0.9-0.4-1.9-0.7-2.8c-1.9-4.2-3.9-8-6.2-11.6c1.2-2.3,2.4-4.4,3.7-6.6L22.6,432.1z"/>
	<path class="st0" d="M51.5,459.2h-0.6c-4.1,0-6.7-0.8-8.8-3c-3.1-3.3-3.2-7-3.2-14.7c0-10-0.6-20.5-1.3-31.6
		c1.8-1.9,3.4-3.7,4.9-4.9l0.4,0.2c0.8,11.5,0.8,25.2,0.8,38.1v3c0,3.4,1.9,4.9,3.9,5.6c1.3,0.5,2.6,0.6,3.3,0.6h0.7v6.7H51.5z"/>
	<path class="st0" d="M52.7,452.5c3.8,0,6.8-2.7,8.7-9.3c0.6-2.1,1.9-4.3,3.8-6.4c1.9-1.8,4-3.1,6.5-3.1c6.3,0,10,8.8,10.8,18
		c-1.1,4.8-3,6.8-5.5,6.8c-5.1,0-10.2-2.4-15.3-6.2h-0.4c-1.3,4.6-4.3,6.8-8.9,6.8h-0.9c-2.8,0-3.6-2.1-3.6-3.5
		c0-1.3,0.8-3.2,3.6-3.2h1.2V452.5z M70.7,450.4c2,0.8,4.1,1.5,6.1,1.5c0.8,0,1.4-0.1,1.7-0.6c-1.5-7.9-4.9-11.5-8.2-11.5
		c-2.9,0-5.4,1.7-6.9,5.2C65,447.4,67.6,449,70.7,450.4z"/>
	<path class="st0" d="M105.9,395.3c-0.5,1.5-1,3-1.5,3.9c-2,1.7-4.3,2.5-7.2,2.5c-3.3,0-7-0.9-9.5-0.9c-0.8,0-1.8,1.9-2.9,4.1h-0.4
		l-1.8-3.2c0-2.5,1-5.8,4.7-5.8c3.6,0,7.3,1.6,11.2,1.6c1.4,0,2.8-0.2,4.2-0.7c0.9-0.4,2-0.9,2.9-1.7L105.9,395.3z M92.1,460.1
		c0.5-3.3,0.6-7.1,0.6-10.5v-5.2c0-9.6-1-23.6-1.9-32.7c1.4-1.9,3.5-4.1,5.1-5.6l0.5,0.2c1.1,11.5,1.3,24.8,1.3,37
		c0,3.2-0.1,6.4-0.4,8.7c-0.2,2.9-1.5,5.1-4.5,8.5L92.1,460.1z"/>
	<path class="st0" d="M148.3,441.1c2.9,7.2,5.6,11.4,11.6,11.4h0.9v6.7h-1.1c-2.3,0-3.9-0.5-5.2-1.7h-0.2c0.1,0.6,0.1,1.3,0.1,1.8
		c0,2.5-0.7,5.6-2.1,8.2c-4.1,7.3-8.5,10.5-12.3,10.5c-3.9,0-8.6-1.8-12.9-4.1l0.8-1.8c1.4,0.7,3.3,1.2,5.9,1.2
		c6.9,0,16-8,17.1-15.8c-0.3-0.6-0.7-1.5-1.4-2.4c-2-2.9-3.3-5.3-4.5-7.8c1-2.4,2-4.4,2.8-6.1L148.3,441.1z M143.9,422.8
		c2.1,1.6,4.2,3.5,6.2,5.6c-1.1,1.9-2.5,3.6-4.3,5.2c-2-1.9-4-3.6-6.1-5.4C141.1,426.3,142.5,424.4,143.9,422.8z"/>
	<path class="st0" d="M193,402.6c-1.1,2.2-2.5,4.3-3.9,6.5c-2.6,0.7-5.5,1.6-8.3,2.6c-5.5,1.9-11.1,4.3-17,6.9v0.2l8.4,3.3l-1.2,2.6
		c7.9,6.6,13.3,13.3,13.3,18.8c0,4.9-1.3,8.8-3.3,10.9c-3.3,2.9-8.4,4.9-18,4.9h-2.1c-2.8,0-3.6-2.1-3.6-3.5c0-1.3,0.8-3.2,3.6-3.2
		h3.3c5.3,0,10.3-0.5,13.8-2.7c1.9-1.2,2.8-2.2,2.8-2.8c0-2.4-1.6-5.2-3.6-7.9c-2.3-3.2-7.1-8.2-15.5-14.9c-1.5-1.2-1.9-3.1-1.9-4.8
		c0-1.1,0.5-2.2,1.2-3.4c0.6-0.9,1.5-2,3.9-3.2c6-3.1,15.9-6.6,27.8-10.5L193,402.6z"/>
	<path class="st0" d="M202.9,441.1c2.9,7.2,5.6,11.4,11.6,11.4h0.9v6.7h-1.1c-2.3,0-3.9-0.5-5.2-1.7h-0.2c0.1,0.6,0.1,1.3,0.1,1.8
		c0,2.5-0.7,5.6-2.1,8.2c-4.1,7.3-8.5,10.5-12.3,10.5c-3.9,0-8.6-1.8-12.9-4.1l0.8-1.8c1.4,0.7,3.3,1.2,5.9,1.2
		c6.9,0,16-8,17.1-15.8c-0.3-0.6-0.7-1.5-1.4-2.4c-2-2.9-3.3-5.3-4.5-7.8c1-2.4,2-4.4,2.8-6.1L202.9,441.1z"/>
	<path class="st0" d="M216.9,452.5c5.4,0,7.2-2.7,8.7-7.7c2-6.6,6.1-10,9.5-10c2.5,0,4.4,0.9,6.2,3.5c1.3,1.9,2.4,3.9,5.2,9.9
		c1.1,2.5,3.9,4.3,8.1,4.3h0.9v6.7h-1c-3,0-5.8-1.1-7.9-4.6h-0.2c-0.3,1.7-0.8,3.1-1.7,4c-1.1,1.2-2.2,1.7-3.4,1.7
		c-4,0.1-10.5-2.8-14.6-7.4h-0.2c-1.4,3.4-4.7,6.2-10.3,6.2h-0.8c-2.8,0-3.6-2.1-3.6-3.5c0-1.3,0.8-3.2,3.6-3.2h1.5V452.5z
		 M234.3,451.6c2.3,1.4,5.3,2.3,7.1,2.3c1,0,1.9-0.1,1.9-1.3c0-2.1-1.2-4.9-2.6-7c-2-3.1-4.4-4.7-6.6-4.7c-2.8,0-5,2-5.9,4.7
		C228.8,447.5,232.1,450.3,234.3,451.6z"/>
	<path class="st0" d="M256.6,452.5c4,0,8.1-1.6,8.9-4.6l1.5-5.7l3.6-2.6l0.3,0.4c-0.7,2.7-1.1,4.9-1.1,6.1c0,1.8,0.5,3.4,1.7,4.4
		c1.7,1.4,3.7,2.1,6.4,2.1h0.9v6.7h-1.2c-5.1,0-8.9-1.4-10.6-5.4h-0.2c-1.8,3.5-5.8,5.4-10.3,5.4h-1c-2.8,0-3.6-2.1-3.6-3.5
		c0-1.3,0.8-3.2,3.6-3.2L256.6,452.5L256.6,452.5z M262.3,432.5c-2.1-2.1-4-3.7-6-5.5c1.3-1.9,2.8-3.6,4.1-5
		c2.1,1.7,3.9,3.4,5.9,5.6C264.8,429.8,263.8,431.2,262.3,432.5z M272.3,431.8c-2.1-2.1-4-3.7-6-5.5c1.3-1.9,2.8-3.6,4.1-5
		c2.1,1.7,3.9,3.4,5.9,5.6C274.7,429.1,273.7,430.5,272.3,431.8z"/>
	<path class="st0" d="M279.9,452.5c3.8,0,6.8-2.7,8.7-9.3c0.6-2.1,1.9-4.3,3.8-6.4c1.9-1.8,4-3.1,6.5-3.1c6.3,0,10,8.8,10.8,18
		c-1.1,4.8-3,6.8-5.5,6.8c-5.1,0-10.2-2.4-15.3-6.2h-0.4c-1.3,4.6-4.3,6.8-8.9,6.8h-0.9c-2.8,0-3.6-2.1-3.6-3.5
		c0-1.3,0.8-3.2,3.6-3.2h1.2V452.5z M298,450.4c2,0.8,4.1,1.5,6.1,1.5c0.8,0,1.4-0.1,1.7-0.6c-1.5-7.9-4.9-11.5-8.2-11.5
		c-2.9,0-5.4,1.7-6.9,5.2C292.2,447.4,294.9,449,298,450.4z"/>
	<path class="st0" d="M348.2,454.2c-5.4,0-9.4-1.9-9.4-6.2c0-1.5,0.5-3.5,1.7-6.2c2.2-4.7,7.6-9.5,16.5-14.5l-0.3-3.9
		c1.3-1.5,2.7-3.1,4.1-4.3h0.6c0.2,8.2,0.2,16.4,0.3,24.5c0.1,3.7,0.4,6.1,2,7.4c1.2,1.1,3.1,1.4,5.4,1.4h1.2v6.7h-1.1
		c-5.1,0-8.7-1.4-10.7-7.3C355.5,453.2,352.3,454.2,348.2,454.2z M357.4,433.3c-9.2,4.8-14,8.7-14,11.5c0,2.1,3.1,2.9,6.6,2.9
		c2.2,0,4.6-0.5,7.6-1.5L357.4,433.3z"/>
	<path class="st0" d="M371.2,452.5c4.4,0,7.9-0.2,10.2-1c1.8-0.7,2.9-1.4,2.9-2.3c0-2.5-2.5-7.6-5.2-13c1.2-2.3,2.5-4.3,3.9-5.9h0.3
		c2.4,4.3,5.2,10.8,5.2,16c0,3.9-1.5,7-3.6,9.8c-2.3,2.4-6,3.2-13.9,3.2h-0.6c-2.8,0-3.6-2.1-3.6-3.5c0-1.3,0.8-3.2,3.6-3.2h0.8
		V452.5z M378.3,413.3c2.1,1.6,4.2,3.5,6.2,5.6c-1.1,1.9-2.5,3.6-4.3,5.2c-2-1.9-4-3.6-6.1-5.4C375.5,416.8,376.9,414.9,378.3,413.3
		z"/>
	<path class="st0" d="M411.1,459.2h-0.6c-4.1,0-6.7-0.8-8.8-3c-3.1-3.3-3.2-7-3.2-14.7c0-10-0.6-20.5-1.3-31.6
		c1.8-1.9,3.4-3.7,4.9-4.9l0.4,0.2c0.8,11.5,0.8,25.2,0.8,38.1v3c0,3.4,1.9,4.9,3.9,5.6c1.3,0.5,2.6,0.6,3.3,0.6h0.7L411.1,459.2
		L411.1,459.2z"/>
	<path class="st0" d="M412.2,452.5c3.8,0,6.8-2.7,8.7-9.3c0.6-2.1,1.9-4.3,3.8-6.4c1.9-1.8,4-3.1,6.5-3.1c6.3,0,10,8.8,10.8,18
		c-1.1,4.8-3,6.8-5.5,6.8c-5.1,0-10.2-2.4-15.3-6.2h-0.4c-1.3,4.6-4.3,6.8-8.9,6.8H411c-2.8,0-3.6-2.1-3.6-3.5
		c0-1.3,0.8-3.2,3.6-3.2h1.2V452.5z M430.3,450.4c2,0.8,4.1,1.5,6.1,1.5c0.8,0,1.4-0.1,1.7-0.6c-1.5-7.9-4.9-11.5-8.2-11.5
		c-2.9,0-5.4,1.7-6.9,5.2C424.6,447.4,427.2,449,430.3,450.4z"/>
	<path class="st0" d="M464.4,459.2h-0.6c-4.1,0-6.7-0.8-8.8-3c-3.1-3.3-3.2-7-3.2-14.7c0-10-0.6-20.5-1.3-31.6
		c1.8-1.9,3.4-3.7,4.9-4.9l0.4,0.2c0.8,11.5,0.8,25.2,0.8,38.1v3c0,3.4,1.9,4.9,3.9,5.6c1.3,0.5,2.6,0.6,3.3,0.6h0.7L464.4,459.2
		L464.4,459.2z"/>
	<path class="st0" d="M506,436.7c0.6,3.9,0.8,7.2,0.8,9.4c0,2.4-0.9,5.4-1.9,7.2c-2,3.3-4.6,5.8-7.6,5.8c-2.2,0-4.6-1.7-6.5-4.4
		h-0.4c-2.3,2.6-5.2,4.5-9,4.5c-2.8,0-4.6-1.4-5-4.5h-0.2c-3.1,3.7-7.5,4.5-11,4.5h-0.9c-2.8,0-3.6-2.1-3.6-3.5
		c0-1.3,0.8-3.2,3.6-3.2h1.8c4.7-0.1,8.4-1.3,10.9-4.9l2.8-4.2l4-1.4l0.2,0.3c-2.1,3.4-3.5,6-3.5,7.6s1.1,2.6,2.7,2.6
		c1.5,0,3.2-0.5,4.6-1.5c1.8-1.4,2.1-2.9,3.7-8.4l3.1-1.8l0.3,0.2c-0.4,1.7-0.7,3.7-0.7,5.2c0,4,2.9,6.1,5.4,6.1
		c1.4,0,2.7-0.8,2.7-2.4c0-2.1-0.6-5.4-1.3-8.5c1.4-1.7,3-3.3,4.6-4.7L506,436.7z"/>
</g>
</svg>
