<?xml version="1.0" encoding="utf-8"?>
<!-- Generator: Adobe Illustrator 26.0.1, SVG Export Plug-In . SVG Version: 6.00 Build 0)  -->
<svg version="1.1"
	 id="Layer_1" xmlns:cc="http://creativecommons.org/ns#" xmlns:dc="http://purl.org/dc/elements/1.1/" xmlns:rdf="http://www.w3.org/1999/02/22-rdf-syntax-ns#" xmlns:svg="http://www.w3.org/2000/svg"
	 xmlns="http://www.w3.org/2000/svg" xmlns:xlink="http://www.w3.org/1999/xlink" x="0px" y="0px" viewBox="0 0 128 128"
	 style="enable-background:new 0 0 128 128;" xml:space="preserve">
<desc>This is shape (source) for Clarity vector icon theme for gtk</desc>
<g>
	<path d="M123,38.1c-8.5-4.6-17.1-9.1-25.7-13.5c-1.6-0.8-3.5-1.2-5.2-1.2c-18.3-0.1-36.6-0.1-54.9,0c-2.7,0-5.5,1-8,2.2
		C20.8,29.7,12.5,34,4.2,38.3c-0.9,0.4-1.7,1-2.4,1.6C0,41.7-0.5,44,0.5,46c1,2.1,2.9,2.6,4.9,2.6c4.1,0,8.2,0,12.3-0.1h2.5
		c-0.2,0.7-0.3,1.3-0.6,1.8C14.8,61.7,9.9,73.1,4.9,84.4c-3.2,7.2,0,16.7,6.9,20.3h103c7.3-1.6,12.2-13.5,8.4-20.9
		c-5.4-10.7-10-21.8-15-32.7c-0.3-0.7-0.6-1.5-1.1-2.6c3.4,0,6.5,0,9.5,0c1.7,0,3.5,0,5.2,0c2.8,0,5-1.1,6.1-3.8v-2.3
		C126.3,40.9,124.9,39.1,123,38.1z M97.7,99.9c-0.2,1.6-1.1,2.6-3.1,2.6c-1.5-0.1-2.5-1-2.6-2.7c-0.1-1.5,1.3-2.9,2.9-2.8
		C96.5,97,97.9,98.4,97.7,99.9z M120.6,86.6c2,4.5,0.2,7.2-4.8,7.5c-0.5,0-1.1,0-1.6,0c-33.9,0-67.9,0-101.8,0
		c-4.9,0-6.8-2.7-4.9-7.2c5.3-12.4,10.7-24.7,16.1-37c0.3-0.6,1.2-1.2,1.9-1.3c1.4-0.2,2.8-0.1,4.7-0.1c-4.6,12.6-9,24.8-13.4,37.1
		h94.4c-4.4-12.3-8.8-24.5-13.3-37.1c1.6,0,2.9-0.1,4.1,0.1c0.6,0.1,1.4,0.6,1.6,1.1C109.4,62,115.1,74.3,120.6,86.6z M32.1,50.4
		c0.6-1.6,1.4-2,2.9-2c19.4,0.1,38.9,0.1,58.3,0c1.6,0,2.4,0.5,2.9,2c3.6,10.3,7.4,20.6,11.1,30.9c0.2,0.6,0.3,1.1,0.6,1.9H20.4
		c0.2-0.7,0.3-1.4,0.6-2C24.7,71.1,28.4,60.8,32.1,50.4z M121.4,45.1c-19.3,0.1-38.6,0.1-57.8,0.1c-19.1,0-38.3,0-57.4,0
		c-0.9,0-1.7-0.5-2.6-0.8c0.6-0.9,1-2.3,1.9-2.7c8.9-4.7,17.9-9.3,26.9-13.8c1.6-0.8,3.5-1,5.3-1c18.1-0.1,36.1-0.1,54.2,0
		c1.7,0,3.4,0.6,4.9,1.3c8.3,4.2,16.5,8.6,24.8,12.9c0.3,0.1,0.6,0.2,0.8,0.4c0.7,0.8,1.5,1.6,2.2,2.3
		C123.4,44.3,122.4,45.1,121.4,45.1z"/>
	<path d="M99.5,77.9h-8.3v-2.2H96c-0.2-0.8-0.3-1.4-0.5-2.3c0.7-0.2,1.3-0.5,2.1-0.8C98.3,74.4,98.8,76,99.5,77.9z"/>
	<path d="M36.8,75.6v2.3h-8.2c0.7-1.8,1.2-3.4,1.9-5.2c0.7,0.2,1.4,0.4,2.2,0.6c-0.2,0.8-0.3,1.4-0.5,2.3H36.8z"/>
	<path d="M35.4,66.1c-0.6,1.9-1.2,3.6-1.9,5.4c-0.7-0.2-1.4-0.4-2.3-0.7c0.7-1.9,1.2-3.6,1.9-5.4C33.9,65.6,34.5,65.8,35.4,66.1z"/>
	<path d="M96.9,70.7c-0.8,0.3-1.4,0.5-2.2,0.9c-0.7-1.8-1.2-3.5-1.9-5.3c0.7-0.3,1.3-0.6,2.2-1C95.7,67.1,96.3,68.9,96.9,70.7z"/>
</g>
</svg>
