<?xml version="1.0" encoding="utf-8"?>
<!-- Generator: Adobe Illustrator 26.0.1, SVG Export Plug-In . SVG Version: 6.00 Build 0)  -->
<svg version="1.1" id="Layer_1" xmlns="http://www.w3.org/2000/svg" xmlns:xlink="http://www.w3.org/1999/xlink" x="0px" y="0px"
	 viewBox="0 0 512 512" style="enable-background:new 0 0 512 512;" xml:space="preserve">
<style type="text/css">
	.st0{fill:#AFAFAF;}
	.st1{fill:#C8CECC;}
	.st2{fill:#BDECDC;}
	.st3{fill:#A1C9BC;}
	.st4{fill:#D6D6D6;}
	.st5{fill:#ADB1B2;}
	.st6{fill:#CBE2EF;}
	.st7{fill:#5CA4CC;}
	.st8{fill:#F9DBDB;}
	.st9{fill:#EAEAEA;}
	.st10{fill:#F0A5A5;}
	.st11{fill:#DFDFDF;}
	.st12{fill:#BEBEBE;}
	.st13{fill:#A2A2A2;}
	.st14{fill:#ADC1CC;}
	.st15{fill:#D4BBBB;}
	.st16{fill:#006095;}
	.st17{fill:#4E8CAE;}
	.st18{fill:#CC8D8D;}
	.st19{fill:none;stroke:#020202;stroke-width:17;stroke-miterlimit:10;}
</style>
<g>
	<g id="_FILLED_OUTLINE">
		<path class="st0" d="M68.9,255.9h119.7c16.5,0,29.9,13.4,29.9,29.9v119.7c0,16.5-13.4,29.9-29.9,29.9H68.9
			c-16.5,0-29.9-13.4-29.9-29.9V285.8C39,269.3,52.4,255.9,68.9,255.9z"/>
		<path class="st1" d="M79.7,321.2c-3.7-1.8-8.2-0.3-10,3.3c-0.5,1-0.8,2.2-0.8,3.3v35.7c0,4.1,3.4,7.5,7.5,7.5
			c1.2,0,2.3-0.3,3.3-0.8l19.1-9.6v-29.9L79.7,321.2z"/>
		<path class="st2" d="M113.8,315.8h59.9c8.3,0,15,6.7,15,15v29.9c0,8.3-6.7,15-15,15h-59.9c-8.3,0-15-6.7-15-15v-29.9
			C98.8,322.5,105.5,315.8,113.8,315.8z"/>
		<path class="st3" d="M128.8,375.6h44.9c8.3,0,15-6.7,15-15v-29.9c0-1.7-0.3-3.4-0.9-4.9C182.9,354.6,158,375.6,128.8,375.6z"/>
		<path class="st4" d="M308.4,240.9h104.8c16.5,0,29.9,13.4,29.9,29.9v104.8c0,16.5-13.4,29.9-29.9,29.9H308.4
			c-16.5,0-29.9-13.4-29.9-29.9V270.9C278.5,254.3,291.9,240.9,308.4,240.9z"/>
		<path class="st5" d="M390.7,308.3h-59.9c-8.3,0-15,6.7-15,15v22.5c0,8.3,6.7,15,15,15h52.4l21,14c0.4,0.3,1,0.2,1.3-0.3
			c0.1-0.2,0.2-0.3,0.2-0.5v-50.6C405.7,315,399,308.3,390.7,308.3z"/>
		<path class="st6" d="M143.7,68.8h59.9c8.3,0,15,6.7,15,15v89.8c0,8.3-6.7,15-15,15h-59.9c-8.3,0-15-6.7-15-15V83.8
			C128.8,75.5,135.5,68.8,143.7,68.8z"/>
		<rect x="151.2" y="91.2" class="st7" width="44.9" height="15"/>
		<rect x="151.2" y="121.2" class="st7" width="44.9" height="15"/>
		<rect x="151.2" y="151.1" class="st7" width="44.9" height="15"/>
		<path class="st8" d="M353.3,98.7h74.8c8.3,0,15,6.7,15,15v74.8c0,8.3-6.7,15-15,15h-74.8c-8.3,0-15-6.7-15-15v-74.8
			C338.3,105.4,345,98.7,353.3,98.7z"/>
		<path class="st9" d="M338.3,136.2h104.8v-22.5c0-8.3-6.7-15-15-15h-74.8c-8.3,0-15,6.7-15,15V136.2z"/>
		<rect x="405.7" y="76.3" class="st8" width="15" height="37.4"/>
		<rect x="360.8" y="76.3" class="st8" width="15" height="37.4"/>
		<rect x="405.7" y="158.6" class="st10" width="15" height="15"/>
		<rect x="375.7" y="158.6" class="st10" width="15" height="15"/>
		<path class="st11" d="M315.9,315.8H196.1c-8.3,0-15,7.3-15,16.4l0.1,155.7h149.7l0.1-155.7C330.9,323.1,324.2,315.8,315.9,315.8z"
			/>
		<path class="st12" d="M211.1,315.8l4.6,18.6c1.7,6.7,7.7,11.3,14.5,11.3h51.5c6.9,0,12.9-4.7,14.5-11.3l4.6-18.6H211.1z"/>
		<rect x="203.6" y="458" class="st12" width="15" height="15"/>
		<rect x="203.6" y="420.5" class="st12" width="15" height="15"/>
		<rect x="233.5" y="420.5" class="st12" width="15" height="15"/>
		<rect x="263.5" y="420.5" class="st12" width="15" height="15"/>
		<rect x="203.6" y="383.1" class="st12" width="15" height="15"/>
		<rect x="233.5" y="383.1" class="st12" width="15" height="15"/>
		<rect x="263.5" y="383.1" class="st12" width="15" height="15"/>
		<rect x="293.4" y="383.1" class="st12" width="15" height="15"/>
		<path class="st12" d="M330.7,328.6c-2.9,86.9-69,155.8-149.6,155.8h149.7v-155C330.8,329.1,330.8,328.8,330.7,328.6z"/>
		<path class="st13" d="M203.6,471.3v1.7h15v-4.7C213.6,469.5,208.6,470.5,203.6,471.3z"/>
		<rect x="263.5" y="458" class="st13" width="15" height="15"/>
		<rect x="293.4" y="458" class="st13" width="15" height="15"/>
		<rect x="233.5" y="458" class="st12" width="15" height="15"/>
		<path class="st13" d="M246.5,458c-4.2,2-8.5,3.9-12.9,5.5v9.4h15v-15H246.5z"/>
		<rect x="293.4" y="420.5" class="st13" width="15" height="15"/>
		<path class="st12" d="M293.4,420.5v1.7c0.5-0.6,1-1.1,1.5-1.7H293.4z"/>
		<path class="st14" d="M139.4,187.9c1.4,0.4,2.8,0.6,4.3,0.6h59.9c8.3,0,15-6.7,15-15V98.7C218.6,144.2,184.6,182.5,139.4,187.9z"
			/>
		<path class="st15" d="M349.3,202.9c1.3,0.4,2.7,0.6,4,0.6h74.8c8.3,0,15-6.7,15-15v-74.8c0-1.4-0.2-2.7-0.6-4
			C437.4,158.9,398.5,197.8,349.3,202.9z"/>
		<path class="st16" d="M380.6,360.7h2.6l21,14c0.4,0.3,1,0.2,1.3-0.3c0.1-0.2,0.2-0.3,0.2-0.5v-50.6c0-1.6-0.3-3.2-0.8-4.7
			C402.4,335.1,393.7,350.1,380.6,360.7z"/>
		<path class="st17" d="M196.1,166.1v-8c-2.5,2.8-5.2,5.5-8,8H196.1z"/>
		<path class="st18" d="M443,112.4c0-0.2,0-0.4-0.1-0.5c0-0.2-0.1-0.4-0.1-0.6c-0.1-0.5-0.2-1.1-0.3-1.6c-0.9,9.1-3.1,18-6.3,26.5
			h6.9v-22.5C443.1,113.3,443.1,112.8,443,112.4z"/>
		<circle class="st9" cx="323.4" cy="203.5" r="44.9"/>
		<polygon class="st8" points="333,223.8 315.9,206.6 315.9,181.1 330.8,181.1 330.8,200.4 343.6,213.2 		"/>
		<path class="st18" d="M304.9,244.4c22.6,10.2,49.2,0.1,59.4-22.5c5.3-11.7,5.3-25.2,0-36.9C355.5,213.4,333.3,235.7,304.9,244.4z"
			/>
		<path d="M443.1,46.3H278.5c-1,0-2.1,0.1-3.1,0.1C269.5,32.8,256,23.9,241,23.9H106.3c-20.7,0-37.4,16.8-37.4,37.4V196
			c0,20.7,16.8,37.4,37.4,37.4H241v15c0,17.8,12.5,33.1,29.9,36.7v23.2h-44.9v-22.5c0-20.7-16.8-37.4-37.4-37.4H68.9
			c-20.7,0-37.4,16.8-37.4,37.4v119.7c0,20.7,16.8,37.4,37.4,37.4h104.8l0,29.9l15,0l-0.1-142.2c0-4.1,3.4-7.5,7.5-7.5h9.2l3.2,12.9
			c2.5,10,11.5,17,21.8,17h51.5c10.3,0,19.3-7,21.8-17l3.2-12.9h9.2c4.1,0,7.5,3.4,7.5,7.5l-0.1,142.2l15,0l0-59.9h74.8
			c20.7,0,37.4-16.8,37.4-37.4v-90.6c17.4-3.6,29.9-18.9,29.9-36.7V83.8C480.5,63.1,463.8,46.4,443.1,46.3z M173.6,330.7l0,37.4
			h-59.8c-4.1,0-7.5-3.4-7.5-7.5v-29.9c0-4.1,3.4-7.5,7.5-7.5h59.9c0.4,0,0.8,0,1.2,0.1C174,325.7,173.6,328.2,173.6,330.7z
			 M211.1,308.3h-15c-3.9,0-7.8,1-11.2,3c-3.4-2-7.3-3-11.2-3h-59.9c-8.2,0-15.8,4.5-19.7,11.7l-11-5.5c-7.4-3.7-16.4-0.7-20.1,6.7
			c-1,2.1-1.6,4.4-1.6,6.7v35.7c0,8.3,6.7,15,14.9,15c2.3,0,4.7-0.5,6.8-1.6l11-5.5c3.9,7.2,11.5,11.7,19.7,11.7h59.8l0,44.9H68.9
			c-12.4,0-22.4-10.1-22.5-22.5V285.8c0-12.4,10.1-22.4,22.5-22.5h119.7c12.4,0,22.4,10.1,22.5,22.5V308.3z M91.3,335.4v20.7
			l-15,7.5v-35.7L91.3,335.4z M241,83.8v134.7H106.3c-12.4,0-22.4-10.1-22.5-22.5V61.3c0-12.4,10.1-22.4,22.5-22.5H241
			c8.3,0,15.9,4.6,19.8,11.9C248.7,57.3,241,70,241,83.8z M289,332.6c-0.8,3.3-3.8,5.7-7.3,5.7h-51.5c-3.4,0-6.4-2.3-7.3-5.7
			l-2.3-9.3h70.6L289,332.6z M332.7,315.8h58.1c4.1,0,7.5,3.4,7.5,7.5v38.4l-12.7-8.5h-47.1l0-22.5
			C338.4,325.2,336.4,319.9,332.7,315.8z M435.6,375.6c0,12.4-10.1,22.4-22.5,22.5h-74.8l0-29.9H381l19.1,12.7
			c3.9,2.6,9.1,1.5,11.7-2.3c0.9-1.4,1.4-3,1.4-4.7v-50.6c0-12.4-10.1-22.4-22.5-22.5h-59.9c-6.4,0-12.5,2.7-16.7,7.5h-28.2v-22.5
			h149.7V375.6z M465.6,248.4c0,12.4-10.1,22.4-22.5,22.5H278.5c-12.4,0-22.4-10.1-22.5-22.5V83.8c0-12.4,10.1-22.4,22.5-22.5h164.7
			c12.4,0,22.4,10.1,22.5,22.5V248.4z"/>
		<rect x="203.6" y="458" width="15" height="15"/>
		<rect x="233.5" y="458" width="15" height="15"/>
		<rect x="263.5" y="458" width="15" height="15"/>
		<rect x="293.4" y="458" width="15" height="15"/>
		<rect x="203.6" y="420.5" width="15" height="15"/>
		<rect x="233.5" y="420.5" width="15" height="15"/>
		<rect x="263.5" y="420.5" width="15" height="15"/>
		<rect x="293.4" y="420.5" width="15" height="15"/>
		<rect x="203.6" y="383.1" width="15" height="15"/>
		<rect x="233.5" y="383.1" width="15" height="15"/>
		<rect x="263.5" y="383.1" width="15" height="15"/>
		<rect x="293.4" y="383.1" width="15" height="15"/>
		<path d="M428.1,91.2h-7.5v-15h-15v15h-29.9v-15h-15v15h-7.5c-12.4,0-22.4,10.1-22.5,22.5v38c-28.6-4.1-55.2,15.7-59.3,44.4
			s15.7,55.2,44.4,59.3c28.6,4.1,55.2-15.7,59.3-44.4c0,0,0,0,0,0h52.9c12.4,0,22.4-10.1,22.5-22.5v-74.8
			C450.6,101.3,440.5,91.3,428.1,91.2z M323.4,240.9c-20.7,0-37.4-16.8-37.4-37.4s16.8-37.4,37.4-37.4s37.4,16.8,37.4,37.4
			C360.8,224.2,344,240.9,323.4,240.9z M435.6,188.5c0,4.1-3.4,7.5-7.5,7.5h-52.9c-2.5-17.4-13.6-32.3-29.4-39.8v-12.5h89.8V188.5z
			 M435.6,128.7h-89.8v-15c0-4.1,3.4-7.5,7.5-7.5h7.5v7.5h15v-7.5h29.9v7.5h15v-7.5h7.5c4.1,0,7.5,3.4,7.5,7.5V128.7z"/>
		<path d="M203.6,61.3h-59.9c-12.4,0-22.4,10.1-22.5,22.5v89.8c0,12.4,10.1,22.4,22.5,22.5h59.9c12.4,0,22.4-10.1,22.5-22.5V83.8
			C226,71.4,216,61.3,203.6,61.3z M211.1,173.6c0,4.1-3.4,7.5-7.5,7.5h-59.9c-4.1,0-7.5-3.4-7.5-7.5V83.8c0-4.1,3.4-7.5,7.5-7.5
			h59.9c4.1,0,7.5,3.4,7.5,7.5V173.6z"/>
		<rect x="151.2" y="91.2" width="44.9" height="15"/>
		<rect x="151.2" y="121.2" width="44.9" height="15"/>
		<rect x="151.2" y="151.1" width="44.9" height="15"/>
		<polygon points="330.8,181.1 315.9,181.1 315.9,206.6 333,223.8 343.6,213.2 330.8,200.4 		"/>
		<rect x="405.7" y="158.6" width="15" height="15"/>
		<rect x="375.7" y="158.6" width="15" height="15"/>
	</g>
	<path class="st19" d="M318.9,488.1H193.2c-6.6,0-12-5.4-12-12V325.4c0-6.6,5.4-12,12-12h125.7c6.6,0,12,5.4,12,12v150.7
		C330.9,482.7,325.5,488.1,318.9,488.1z"/>
</g>
</svg>
