<?xml version="1.0" encoding="utf-8"?>
<!-- Generator: Adobe Illustrator 26.0.1, SVG Export Plug-In . SVG Version: 6.00 Build 0)  -->
<svg version="1.1" id="Layer_1" xmlns="http://www.w3.org/2000/svg" xmlns:xlink="http://www.w3.org/1999/xlink" x="0px" y="0px"
	 viewBox="0 0 250 250" style="enable-background:new 0 0 250 250;" xml:space="preserve">
<style type="text/css">
	.st0{fill:#646566;stroke:#050505;stroke-miterlimit:10;}
	.st1{stroke:#050505;stroke-miterlimit:10;}
	.st2{fill:none;stroke:#333333;stroke-width:4;stroke-linecap:round;stroke-linejoin:round;stroke-miterlimit:10;}
</style>
<g>
	<rect x="3.8" y="147.2" class="st0" width="91.2" height="10.8"/>
	<path class="st1" d="M95,89.2H3.8c-1.1,0-1.9,0.9-1.9,1.9V158c0,1.1,0.9,1.9,1.9,1.9H39l-1.3,8.8h-5.6c-1.1,0-1.9,0.9-1.9,1.9
		s0.9,1.9,1.9,1.9h7.3h20.1l0,0h7.3c1.1,0,1.9-0.9,1.9-1.9s-0.9-1.9-1.9-1.9h-5.6l-1.3-8.8H95c1.1,0,1.9-0.9,1.9-1.9V91.1
		C96.9,90.1,96,89.2,95,89.2z M57.1,168.8H41.6l1.3-8.8h12.9L57.1,168.8z M57.5,156.1H41.2H5.7v-6.9h72.9c1.1,0,1.9-0.9,1.9-1.9
		s-0.9-1.9-1.9-1.9H5.7V93.1H93v52.8c-0.4-0.4-0.8-0.6-1.4-0.6h-7.1c-1.1,0-1.9,0.9-1.9,1.9s0.9,1.9,1.9,1.9h7.1
		c0.5,0,1-0.2,1.4-0.6v7.5L57.5,156.1L57.5,156.1z"/>
</g>
<g>
	<path class="st2" d="M87.9,84c5.5-15.5,27.3-44.4,71.7-42.3"/>
	<path class="st2" d="M87.9,166c5.5,15.5,27.3,44.4,71.7,42.3"/>
	<line class="st2" x1="105.2" y1="124" x2="159.6" y2="124"/>
</g>
<g>
	<path d="M240,2.2c-23.1,0-46.1,0-69.2,0c-5.3,0-7.4,2.1-7.4,7.4c0,18.9,0,37.7,0,56.6c0,5.9,2,7.9,7.9,7.9c11.3,0,22.7,0,34,0
		c11.5,0,23,0,34.5,0c5.3,0,7.4-2.1,7.4-7.3V9.5C247.2,4.3,245.2,2.2,240,2.2z M192.1,6.6c1.8,0.1,2.8,1.2,3,2.9
		c0.2,1.6-1.2,3-2.9,3.1c-1.8,0-3-1.2-3-2.9C189.1,8,190.5,6.5,192.1,6.6z M182.9,6.6c1.6,0,3,1.5,3,3.1c0,1.7-1.4,3-3.2,2.9
		c-1.8-0.1-2.8-1.1-2.8-2.9C179.9,8,181.3,6.6,182.9,6.6z M170.9,9.6c0.1-1.7,1.2-2.8,2.9-3c1.6-0.2,3.1,1.3,3.1,2.9
		c0,1.7-1.2,3-3,3C172.2,12.6,170.8,11.2,170.9,9.6z M241.2,68h-71.6V17.2h71.6V68z M241.3,11h-41.8V8.3h41.8V11z"/>
</g>
<g>
	<path d="M240,172.5c-23.1,0-46.1,0-69.2,0c-5.3,0-7.4,2.1-7.4,7.4c0,18.9,0,37.7,0,56.6c0,5.9,2,7.9,7.9,7.9c11.3,0,22.7,0,34,0
		c11.5,0,23,0,34.5,0c5.3,0,7.4-2.1,7.4-7.3v-57.3C247.2,174.5,245.2,172.5,240,172.5z M192.1,176.9c1.8,0.1,2.8,1.2,3,2.9
		c0.2,1.6-1.2,3-2.9,3.1c-1.8,0-3-1.2-3-2.9C189.1,178.2,190.5,176.8,192.1,176.9z M182.9,176.9c1.6,0,3,1.5,3,3.1
		c0,1.7-1.4,3-3.2,2.9c-1.8-0.1-2.8-1.1-2.8-2.9C179.9,178.2,181.3,176.9,182.9,176.9z M170.9,179.9c0.1-1.7,1.2-2.8,2.9-3
		c1.6-0.2,3.1,1.3,3.1,2.9c0,1.7-1.2,3-3,3C172.2,182.9,170.8,181.5,170.9,179.9z M241.2,238.3h-71.6v-50.8h71.6V238.3z
		 M241.3,181.3h-41.8v-2.7h41.8V181.3z"/>
</g>
<g>
	<path d="M240,88.1c-23.1,0-46.1,0-69.2,0c-5.3,0-7.4,2.1-7.4,7.4c0,18.9,0,37.7,0,56.6c0,5.9,2,7.9,7.9,7.9c11.3,0,22.7,0,34,0
		c11.5,0,23,0,34.5,0c5.3,0,7.4-2.1,7.4-7.3V95.3C247.2,90.1,245.2,88.1,240,88.1z M192.1,92.5c1.8,0.1,2.8,1.2,3,2.9
		c0.2,1.6-1.2,3-2.9,3.1c-1.8,0-3-1.2-3-2.9C189.1,93.8,190.5,92.4,192.1,92.5z M182.9,92.5c1.6,0,3,1.5,3,3.1c0,1.7-1.4,3-3.2,2.9
		c-1.8-0.1-2.8-1.1-2.8-2.9C179.9,93.8,181.3,92.5,182.9,92.5z M170.9,95.5c0.1-1.7,1.2-2.8,2.9-3c1.6-0.2,3.1,1.3,3.1,2.9
		c0,1.7-1.2,3-3,3C172.2,98.5,170.8,97.1,170.9,95.5z M241.2,153.9h-71.6v-50.8h71.6V153.9z M241.3,96.9h-41.8v-2.7h41.8V96.9z"/>
</g>
</svg>
