<?xml version="1.0" encoding="utf-8"?>
<!-- Generator: Adobe Illustrator 26.0.1, SVG Export Plug-In . SVG Version: 6.00 Build 0)  -->
<svg version="1.1" id="Layer_1" xmlns="http://www.w3.org/2000/svg" xmlns:xlink="http://www.w3.org/1999/xlink" x="0px" y="0px"
	 viewBox="0 0 512 512" style="enable-background:new 0 0 512 512;" xml:space="preserve">
<style type="text/css">
	.st0{fill:none;stroke:#000000;stroke-width:5;stroke-miterlimit:10;}
</style>
<g>
	<g>
		<path d="M453.2,45.2c-1.6-0.1-3.3-1.7-4.7-3c-4.9-4.2-9.6-8.6-14.4-12.9H234.9c-5,4.2-9.6,8.9-15,12.5c-2.9,2-6.9,3.3-10.5,3.3
			c-48,0.2-95.9,0.1-143.9,0.1c-24.7,0-36,11.5-36,36.5c0,121.1,0,242.2,0,363.3c0,26,11.4,37.3,37.5,37.3
			c125.5,0,250.9-0.2,376.4,0.2c19,0.1,32.3-6.3,39.2-24.4V69.6C477.1,56.3,468.9,46.3,453.2,45.2z M245,43.6
			c59.7,0.2,119.4,0.2,179,0c8.9,0,12.7,3.7,12.6,12.7c-0.2,28.8-0.2,57.7,0,86.5c0.1,8.6-3.6,12-12.1,11.9
			c-30.2-0.2-60.4-0.1-90.5-0.1c-29.5,0-59,0-88.5,0c-11.8,0-13.6-1.8-13.7-13.3c-0.1-28.2,0.1-56.3-0.1-84.5
			C231.7,47.5,235.5,43.6,245,43.6z M468.2,444.3c0,18.6-5.2,23.8-23.9,23.8c-125.5,0-251,0-376.5,0c-18.9,0-24-5-24-23.7
			c0-120.8,0-241.6,0-362.4c0-17.1,5.2-22.4,21.9-22.4c47,0,93.9,0,140.9,0h10.8c0,26.2,0,51.3,0,76.4c0,4.7-0.1,9.4,0.7,14
			c1.8,11.4,9.8,18.6,21.4,18.6c63.1,0.2,126.1,0.2,189.2,0c13.1,0,21.8-8.9,22-22.4c0.3-24.5,0.1-49,0.1-73.5v-12
			c9.8-0.4,15.6,4.1,17.1,13.1c0.5,2.9,0.3,6,0.3,9C468.2,203.4,468.2,323.9,468.2,444.3z"/>
		<path d="M191.6,334.8c-2.3-6.4-6.4-12.8-6.6-19.2c-0.6-34.5-0.6-69.1,0-103.6c0.1-6.5,4.2-12.8,6.5-19.2c3-8.3,8.2-16.4,8.7-24.9
			c1.2-21.7,0.5-43.6,0.4-65.4c-0.1-16.9-9-25.7-26.2-25.8c-14.4-0.1-28.8,0-43.3,0c-15.4,0-30.9-0.2-46.3,0.1
			c-15.1,0.3-23.5,8.9-23.7,24c-0.2,22.8-0.7,45.6,0.3,68.4c0.4,7.8,5.2,15.4,8,23c2.3,6.4,6.7,12.7,6.8,19.2
			c0.7,34.9,0.7,69.8,0,104.6c-0.1,6.4-4.4,12.8-6.7,19.2c-2.8,7.7-7.6,15.2-8,23.1c-1.1,22.8-0.6,45.6-0.3,68.4
			c0.2,15.8,8.5,24,24.5,24.1c29.8,0.2,59.7,0.2,89.5,0c16.6-0.1,25.3-9,25.4-25.6c0.1-21.8,0.8-43.6-0.4-65.4
			C199.8,351.3,194.6,343.1,191.6,334.8z M173.7,436.5c-14.4-0.3-28.8-0.1-43.2-0.1c-14.4,0-28.8-0.2-43.2,0.1
			c-7.8,0.1-11.9-2.8-11.8-11.1c0.2-22.5-0.3-44.9,0.3-67.4c0.1-4.9,3.6-9.7,5.5-14.5c3.2-8.5,8.9-17,9.2-25.6
			c1-36.2,1-72.4,0-108.6c-0.2-8.4-5.6-16.6-8.7-24.8c-2-5.5-5.8-10.9-5.9-16.4c-0.7-21.8-0.1-43.6-0.4-65.3
			c-0.1-8.7,3.7-12.1,12.1-12c28.8,0.1,57.7,0.1,86.5,0c9,0,12.6,4.1,12.4,12.9c-0.2,21.1,0.4,42.3-0.4,63.3
			c-0.2,5.8-4.2,11.5-6.2,17.3c-3.2,8.9-8.6,17.8-8.9,26.8c-1.1,35.2-1.1,70.4,0,105.6c0.3,9,5.8,17.8,9,26.7
			c2.1,5.8,5.9,11.5,6.1,17.4c0.7,21.1,0.1,42.2,0.4,63.3C186.5,433,182.7,436.7,173.7,436.5z"/>
		<path d="M420.1,73c0.2-9.3-3.9-12.2-12.7-12.1C383.2,61.3,359.1,61,335,61c-25.1,0-50.3,0.1-75.4-0.1c-7.6-0.1-10.9,2.7-10.8,10.6
			c0.3,18.4,0.3,36.9,0,55.3c-0.1,8.3,3.4,11.3,11.4,11.3c49.2-0.1,98.5-0.2,147.7,0c8.6,0,12.2-3.4,12.1-11.9
			C419.8,108.5,419.7,90.7,420.1,73z M405,122.9H263.4V76.2H405V122.9z"/>
	</g>
	<path class="st0" d="M293.1,241h-33.8c-4,0-7.3-3.3-7.3-7.3v-15c0-4,3.3-7.3,7.3-7.3h33.8c4,0,7.3,3.3,7.3,7.3v15
		C300.4,237.7,297.1,241,293.1,241z"/>
	<path class="st0" d="M353.7,241H320c-4,0-7.3-3.3-7.3-7.3v-15c0-4,3.3-7.3,7.3-7.3h33.8c4,0,7.3,3.3,7.3,7.3v15
		C361.1,237.7,357.8,241,353.7,241z"/>
	<path class="st0" d="M414.4,241h-33.8c-4,0-7.3-3.3-7.3-7.3v-15c0-4,3.3-7.3,7.3-7.3h33.8c4,0,7.3,3.3,7.3,7.3v15
		C421.7,237.7,418.4,241,414.4,241z"/>
	<path class="st0" d="M293.3,285.6h-33.8c-4,0-7.3-3.3-7.3-7.3v-15c0-4,3.3-7.3,7.3-7.3h33.8c4,0,7.3,3.3,7.3,7.3v15
		C300.6,282.3,297.3,285.6,293.3,285.6z"/>
	<path class="st0" d="M354,285.6h-33.8c-4,0-7.3-3.3-7.3-7.3v-15c0-4,3.3-7.3,7.3-7.3H354c4,0,7.3,3.3,7.3,7.3v15
		C361.3,282.3,358,285.6,354,285.6z"/>
	<path class="st0" d="M414.6,285.6h-33.8c-4,0-7.3-3.3-7.3-7.3v-15c0-4,3.3-7.3,7.3-7.3h33.8c4,0,7.3,3.3,7.3,7.3v15
		C422,282.3,418.7,285.6,414.6,285.6z"/>
	<path class="st0" d="M293.1,331.4h-33.8c-4,0-7.3-3.3-7.3-7.3v-15c0-4,3.3-7.3,7.3-7.3h33.8c4,0,7.3,3.3,7.3,7.3v15
		C300.4,328.1,297.1,331.4,293.1,331.4z"/>
	<path class="st0" d="M353.7,331.4H320c-4,0-7.3-3.3-7.3-7.3v-15c0-4,3.3-7.3,7.3-7.3h33.8c4,0,7.3,3.3,7.3,7.3v15
		C361.1,328.1,357.8,331.4,353.7,331.4z"/>
	<path class="st0" d="M414.4,331.4h-33.8c-4,0-7.3-3.3-7.3-7.3v-15c0-4,3.3-7.3,7.3-7.3h33.8c4,0,7.3,3.3,7.3,7.3v15
		C421.7,328.1,418.4,331.4,414.4,331.4z"/>
	<path class="st0" d="M293.3,376h-33.8c-4,0-7.3-3.3-7.3-7.3v-15c0-4,3.3-7.3,7.3-7.3h33.8c4,0,7.3,3.3,7.3,7.3v15
		C300.6,372.7,297.3,376,293.3,376z"/>
	<path class="st0" d="M354,376h-33.8c-4,0-7.3-3.3-7.3-7.3v-15c0-4,3.3-7.3,7.3-7.3H354c4,0,7.3,3.3,7.3,7.3v15
		C361.3,372.7,358,376,354,376z"/>
	<path class="st0" d="M414.6,407.7h-33.8c-4,0-7.3-3.3-7.3-7.3v-46.7c0-4,3.3-7.3,7.3-7.3h33.8c4,0,7.3,3.3,7.3,7.3v46.7
		C422,404.4,418.7,407.7,414.6,407.7z"/>
</g>
</svg>
