<?xml version="1.0" encoding="utf-8"?>
<!-- Generator: Adobe Illustrator 26.0.1, SVG Export Plug-In . SVG Version: 6.00 Build 0)  -->
<svg version="1.1" id="Layer_1" xmlns="http://www.w3.org/2000/svg" xmlns:xlink="http://www.w3.org/1999/xlink" x="0px" y="0px"
	 viewBox="0 0 250 250" style="enable-background:new 0 0 250 250;" xml:space="preserve">
<g>
	<path d="M190.6,1.6H25.7c-11.5,0-18.6,7-18.6,18.5c0,66.2,0,132.4,0,198.6c0,2,0.2,4.1,0.7,6c2,7.6,8.5,12.5,16.4,12.5
		c26.5,0,52.9,0,79.4,0h21.2c-20.2-30-22.8-60.8-1.8-90.5c21.1-29.8,51-37.8,86.1-28.7V20.1C209.1,8.6,202.1,1.6,190.6,1.6z
		 M89.5,175.5c-0.2,0-0.5,0-0.7,0H67.7c-7.2,0-14.4,0-21.5,0c-6.6,0-11.4-4.8-11.4-11.2c0.1-6.2,5-10.9,11.4-10.9
		c14.4,0,28.7,0,43.1,0c6.5,0,11.6,4.9,11.6,11.1C100.9,170.7,95.9,175.4,89.5,175.5z M125.9,118.1c-2.3,2.8-5.4,4.1-8.9,4.1
		c-23.6,0-47.1,0.1-70.7,0c-6.8,0-11.6-5-11.5-11.4c0.1-6.2,5.1-10.9,11.8-10.9c11.7,0,23.4,0,35.1,0c11.8,0,23.6,0,35.3,0
		c4.7,0,8.4,2.1,10.5,6.5C129.4,110.5,128.8,114.5,125.9,118.1z M169,68.5c-0.6,0-1.1,0-1.7,0c-40.3,0-80.5,0-120.8,0
		c-6.6,0-11.6-4.5-11.8-10.6c-0.2-6.6,4.7-11.5,11.5-11.5c20.3,0,40.7,0,61,0c20.1,0,40.2,0,60.3,0c6,0,10.1,3.2,11.4,8.8
		C180.5,61.5,175.6,68,169,68.5z"/>
	<path d="M184.9,131.9c-32.2,0-58.3,26.1-58.3,58.3c0,32,26,58.1,57.9,58.1c32.1,0,58.2-25.9,58.4-58
		C243.1,158.4,216.8,132,184.9,131.9z M214.2,202.1c-10.6,0.2-21.1,0.1-31.7,0c-3.4,0-5.8-2.4-6.4-5.8c-0.2-1-0.2-2.1-0.2-3.1
		c0-12.8,0-25.6,0-38.5c0-1,0.1-2.1,0.2-3.1c0.7-3.8,3.5-6.1,7.3-5.8c3.5,0.2,6.1,3.1,6.1,6.8c0,10.9,0,21.8,0,32.7v3.2
		c8.2,0,15.9,0,23.6,0c3.6,0,6.2,1.8,7.2,4.6C221.9,197.4,218.9,202,214.2,202.1z"/>
</g>
</svg>
