<?xml version="1.0" encoding="utf-8"?>
<!-- Generator: Adobe Illustrator 26.0.1, SVG Export Plug-In . SVG Version: 6.00 Build 0)  -->
<svg version="1.1" id="Layer_1" xmlns="http://www.w3.org/2000/svg" xmlns:xlink="http://www.w3.org/1999/xlink" x="0px" y="0px"
	 viewBox="0 0 48 48" style="enable-background:new 0 0 48 48;" xml:space="preserve">
<style type="text/css">
	.st0{fill:#3F3F3F;}
</style>
<g>
	<path class="st0" d="M38.3,14.4c0-2.4-1.9-4.3-4.3-4.3c-1.3,0-2.6,0-3.9,0c-0.2,0-0.3,0-0.4-0.3c-0.3-2-1.8-3.4-3.7-3.5
		c-1.4,0-2.7,0-4.1,0c-1.8,0.1-3.3,1.4-3.6,3.2c0,0.2-0.1,0.4-0.1,0.6h-0.4c-1.3,0-2.6,0-3.9,0c-2.1,0-3.9,1.5-4.1,3.6
		c-0.1,0.8-0.1,1.6-0.1,2.4c0,0.7,0.5,1.2,1.2,1.2c0.2,0,0.5,0,0.7,0v0.4c0,6.4,0,12.8,0,19.3c0,2.6,2.1,4.7,4.7,4.7
		c5.1,0,10.2,0,15.3,0c1,0,1.9-0.3,2.7-0.9c1.3-1,2-2.3,2-4c0-6.4,0-12.7,0-19.1v-0.5c0.3,0,0.5,0,0.7,0c0.7,0,1.3-0.5,1.3-1.3
		C38.3,15.5,38.3,14.9,38.3,14.4z M22,8.8c1.3,0,2.7,0,4,0c0.6,0,1.1,0.5,1.2,1.2h-6.5C20.7,9.5,21.4,8.8,22,8.8z M33.9,36.8
		c0,1.5-1,2.4-2.4,2.4c-4.9,0-9.9,0-14.8,0c-1.5,0-2.4-1-2.4-2.4c0-6.4,0-12.7,0-19.1v-0.4h19.7c0,0.1,0,0.2,0,0.3
		C33.9,24,33.9,30.4,33.9,36.8z M35.6,14.8c-0.2,0-0.4,0-0.7,0c-3.7,0-7.3,0-11,0c-3.6,0-7.1,0-10.7,0c-0.3,0-0.6,0-0.9,0
		c-0.1,0-0.2,0-0.2-0.2c-0.1-1.1,0.6-2,1.8-2c1.8,0,3.5,0,5.3,0c1.3,0,2.6,0,3.9,0c3.5,0,7.1,0,10.6,0c0.9,0,1.6,0.4,1.8,1.1
		c0.1,0.3,0.1,0.6,0.1,1C35.8,14.7,35.7,14.8,35.6,14.8z"/>
	<path class="st0" d="M30.3,34.1c0,0.8-0.6,1.3-1.3,1.3c-0.7,0-1.2-0.6-1.2-1.3c0-0.9,0-1.9,0-2.8s0-1.9,0-2.8c0-1,0-2.1,0-3.1
		c0-0.9,0-1.7,0-2.6c0-0.6,0.4-1,0.9-1.2c0.5-0.2,1.1,0,1.4,0.5c0.1,0.2,0.2,0.5,0.2,0.7C30.3,26.6,30.3,30.3,30.3,34.1z"/>
	<path class="st0" d="M20.2,28.5v5.6c0,0.8-0.5,1.4-1.2,1.4c-0.7,0-1.2-0.6-1.2-1.4c0-3.7,0-7.5,0-11.2c0-0.8,0.5-1.4,1.2-1.4
		c0.7,0,1.2,0.6,1.2,1.4C20.2,24.7,20.2,26.6,20.2,28.5L20.2,28.5z"/>
	<path class="st0" d="M25.3,28.5c0,1.9,0,3.7,0,5.6c0,0.7-0.3,1.2-0.9,1.3c-0.7,0.2-1.4-0.2-1.5-0.9c0-0.1,0-0.3,0-0.4
		c0-3.7,0-7.4,0-11.1c0-0.7,0.3-1.1,0.8-1.3c0.8-0.3,1.7,0.3,1.7,1.2c0,0.9,0,1.9,0,2.8V28.5z"/>
</g>
</svg>
