<?xml version="1.0" encoding="utf-8"?>
<!-- Generator: Adobe Illustrator 26.0.1, SVG Export Plug-In . SVG Version: 6.00 Build 0)  -->
<svg version="1.1" id="Layer_1" xmlns="http://www.w3.org/2000/svg" xmlns:xlink="http://www.w3.org/1999/xlink" x="0px" y="0px"
	 viewBox="0 0 250 250" style="enable-background:new 0 0 250 250;" xml:space="preserve">
<g>
	<path d="M216.6,209.8c-0.3,17.1-12,30.1-29,31.5c-7.7,0.6-15.4,0.4-23.1,0.4c-13.2,0.1-26.4,0-39.7,0v0c-19.2,0-38.5,0-57.7,0
		c-8.1,0-15.6-2-22.1-7.1c-7.5-5.8-11.2-13.8-11.6-23c-0.7-15.7,0.9-31.3,5.9-46.3c2.6-7.8,6.3-14.9,12-20.9
		c7.3-7.6,16.4-10.9,26.7-10.9c1,0,2.2,0.5,3.1,1.1c3.7,2.3,7.4,4.6,11,7c20.1,13.2,45.9,13.2,65.9-0.1c2.8-1.9,5.7-3.6,8.4-5.6
		c3-2.2,6.2-2.7,9.8-2.3c11.6,1.4,20.6,6.9,27,16.7c5.8,8.8,8.9,18.7,10.9,29C216.1,189.3,216.8,199.5,216.6,209.8z"/>
	<path d="M175.1,91.8c-0.1,26.5-22.4,50.3-50.2,49.9c-27.6,0.4-50-23.2-50-49.9C74.8,65,97.2,41.7,124.7,41.6
		C152.7,41.4,175.2,65.1,175.1,91.8z"/>
	<path d="M77,124.7c-3.5,0.6-6.9,0.9-10.1,1.7c-9.1,2.1-16.7,6.9-22.9,13.9c-0.9,1-1.8,1.5-3.2,1.5c-6.5-0.2-13.1-0.1-19.7-0.4
		c-4.6-0.2-8.9-1.8-12.8-4.3c-5-3.2-7.9-7.8-8.1-13.7c-0.4-12,0.1-24,3.5-35.7c1.1-3.7,2.5-7.2,5.5-9.8c1.1-1,2.5-1.8,3.9-2.4
		c1.7-0.8,3.4-0.6,5.2,0.3c5.2,2.5,10.4,5.1,15.7,7.2c10.3,4.1,20.9,3.9,31.4,0.7c0.5-0.2,1-0.3,1.9-0.5
		C65.2,98.3,68.4,112.2,77,124.7z"/>
	<path d="M233.1,140.7c-2.8,0.7-5.8,0.9-8.7,1c-5.3,0.2-10.6,0.1-15.9,0c-0.7,0-1.5-0.3-2-0.8c-8.6-9.8-19.4-15.1-32.5-15.8
		c-0.4,0-0.7-0.1-1.3-0.2c4.2-6.2,7.3-12.7,8.9-19.9c1.7-7.1,1.9-14.4,0.9-21.7c3,0.7,5.8,1.5,8.7,2c8.2,1.5,16.3,1,24-2.1
		c5.3-2.1,10.4-4.5,15.5-7c3.5-1.7,6.6-1.6,9.4,1.1c1.9,1.9,3.6,4.3,4.7,6.8c2.8,5.9,3.7,12.4,4.2,18.9c0.5,5.5,0.5,11,0.8,16.5
		C250.5,131.5,243.8,138.1,233.1,140.7z"/>
	<path d="M233.4,41.7c0,18.6-14.8,33.3-33.4,33.3c-18.5,0-33.3-14.8-33.3-33.2c0-18.6,14.8-33.4,33.3-33.4
		C218.5,8.4,233.4,23.1,233.4,41.7z"/>
	<path d="M83.3,41.8C83.3,60.3,68.4,75,49.9,75c-18.6,0-33.3-14.8-33.3-33.4c0-18.5,14.9-33.3,33.5-33.3
		C68.6,8.3,83.3,23.2,83.3,41.8z"/>
</g>
</svg>
